<svg width="1920" height="1080" viewBox="0 0 1920 1080" fill="none" xmlns="http://www.w3.org/2000/svg">
<path d="M821.387 751.043C863.053 712.747 905.413 674.747 943.893 634.753C954.533 623.7 963.733 605.728 949.107 598.029C935.04 590.625 913.467 601.805 898.04 601.805C877.56 601.815 858.88 592.692 838.307 593.367C822.147 593.905 807.507 600.518 792.693 605.675C767.507 614.45 738.08 621.496 710.707 624.259C686.813 626.664 661.653 617.425 640.2 609.736C618.88 602.089 597.64 593.705 574.667 590.108C549.08 586.1 507.387 588.727 491.2 607.268C484.853 614.545 481.027 623.025 475.013 630.482C468.973 637.97 460.88 644.256 452.853 650.468C437.32 662.491 421.8 674.515 406.267 686.528C397.893 693.004 389.453 699.532 379.573 704.51C369.547 709.562 358.28 712.884 346.867 715.532C290.8 728.494 230.36 725.393 173.693 714.203C130.587 705.691 89.2134 692.645 48.5467 678.639C13.32 666.51 -23.24 644.045 -61.7067 640.027C-92.5333 636.81 -123.4 633.772 -154.293 630.914C-188.52 627.75 -226.093 625.43 -254.573 640.775C-284.547 656.944 -294.973 687.551 -302.387 715.637C-339.453 856.385 -355.613 1000.59 -350.373 1144.3C-349.747 1161.65 -348.573 1179.67 -338.24 1194.97C-315.027 1229.35 -257.64 1236.32 -208.493 1239.25C-105.08 1245.41 -1.68 1251.57 101.733 1257.73C198.12 1263.47 290.827 1258.01 383.413 1234.25C412.933 1226.68 442.253 1217.75 467.813 1203.83C498.293 1187.23 522.32 1164.07 541.507 1139.04C585.027 1082.27 604.627 1016.22 639.76 955.927C684.173 879.736 751.813 814.978 821.387 751.043Z" stroke="#D29277" stroke-miterlimit="10"/>
<path d="M738.253 733.831C733.547 726.163 726.453 719.666 716.827 715.458C695.053 705.934 668.96 710.343 645.373 710.648C618.4 710.997 603.533 703.35 581.827 692.234C567.547 684.925 549.653 683.121 532.747 684.598C493.76 687.983 465.027 704.732 431.747 719.202C370.56 745.801 298.307 756.127 229.227 748.143C197.067 744.42 165.827 736.9 134.733 729.401C83.3199 716.998 31.9066 704.605 -19.5067 692.202C-27.1734 690.356 -35.1867 688.489 -43.08 689.607C-55.8533 691.422 -57.7467 699.69 -60.7334 708.043C-65.44 721.174 -70.9734 734.157 -76.0934 747.193C-86.3334 773.286 -96.56 799.369 -106.8 825.462C-127.013 876.983 -147.24 928.515 -167.453 980.037C-179.907 1011.77 -192.36 1043.52 -202.867 1075.69C-209.04 1094.61 -214.16 1115.91 -201.533 1132.7C-187.093 1151.91 -155.627 1157.38 -127.64 1160.47C-48.2934 1169.23 31.7333 1173.51 111.773 1175.35C197.08 1177.32 282.44 1176.5 367.773 1175.42C383.52 1175.22 398.12 1178.52 413.227 1174.52C428.973 1170.36 443.8 1163.7 457.187 1155.99C484.08 1140.5 505.92 1119.8 523.053 1097.37C552.28 1059.11 569.48 1016 592.08 975.027C618.773 926.606 653.213 880.864 694.333 839.247C712.947 820.399 733.413 801.689 742 778.76C747.44 764.174 746.48 747.225 738.253 733.831Z" stroke="#D29277" stroke-miterlimit="10"/>
<path d="M709.867 780.3C715.933 769.321 719.44 756.844 713.053 746.191C707.4 736.773 694.867 730.825 681.96 728.694C656.44 724.486 630.4 733.936 606.027 723.611C590.08 716.85 576.84 705.807 558.747 702.432C532.053 697.454 506.573 711.861 483.627 723.737C431.48 750.727 371.547 768.245 309.747 774.531C296.573 775.87 283.307 776.714 270.027 776.44C252.573 776.081 235.28 773.814 218.173 771.114C145.12 759.597 75.72 738.471 3.74666 723.927C-6.78667 721.797 -19.56 720.204 -27.16 726.363C-29.9733 728.641 -31.5733 731.668 -33.1067 734.622C-48.0667 763.478 -53.0933 795.308 -53.0933 826.706C-57.88 899.849 -62.6533 973.118 -59.12 1046.3C-58.32 1062.97 -56.4933 1080.89 -43.04 1093.73C-28.2667 1107.85 -3.55999 1112.07 19.2267 1115.43C28.0133 1116.72 36.8 1118.01 45.5867 1119.3C108.467 1128.46 171.587 1137.08 235.347 1141.35C267 1143.47 298.787 1144.52 330.56 1143.96C346.427 1143.68 362.28 1143.02 378.08 1141.89C390.293 1141.02 406.547 1141.29 417.587 1136.64C447.613 1123.99 470.067 1102.46 488.827 1080.01C506.907 1058.38 522.293 1035.43 536.653 1012.14C561.907 971.241 584.107 929.074 613.173 889.703C640.64 852.493 683.44 823.015 707.627 784.065C708.413 782.852 709.16 781.587 709.867 780.3Z" stroke="#D29277" stroke-miterlimit="10"/>
<path d="M626.32 625.546C610.893 619.534 596.467 611.866 580.347 607.12C562.907 601.995 542.093 600.803 526.667 609.05C506.253 619.977 502.04 643.233 483.013 655.615C479.28 658.051 474.96 660.066 472.227 663.23C469.493 666.383 468.987 671.256 472.747 673.661C475.773 675.601 480.147 675.2 483.96 674.589C513.08 669.874 542.64 658.157 571.093 664.991C587.547 668.946 602.467 677.742 617.133 684.471C632.08 691.337 650.28 691.791 667.093 690.926C687.453 689.882 708.613 687.34 727.747 692.951C739.92 696.516 750.52 703.361 757.373 712.072C761.96 717.884 764.987 724.57 770.973 729.517C790.28 745.453 813.227 722.187 824.093 710.849C844.12 689.934 869.707 673.038 892.72 654.297C903.213 645.754 916.133 636.166 923 625.419C933.813 608.47 909.827 613.849 898.267 616.929C878.613 622.171 857.267 612.12 836.733 614.429C821.533 616.138 806.84 624.312 792.013 627.961C774 632.391 755.547 635.808 736.827 637.685C700.853 641.292 663.4 639.151 630.147 627.001C628.867 626.527 627.587 626.041 626.32 625.546Z" stroke="#D29277" stroke-miterlimit="10"/>
<path d="M547.92 956.792C560.333 940.729 571.44 924.033 581.107 906.831C589.973 891.063 598.013 874.294 583.587 859.359C568.667 843.919 552.547 828.309 546.587 809.462C543.48 799.654 543.32 789.423 541.813 779.382C540.32 769.331 537.267 759.038 529.36 751.085C510.507 732.111 486.733 744.029 466.68 754.281C450.987 762.307 434.04 768.793 416.347 773.561C406 776.345 394.08 779.456 389.933 787.451C386 795.013 390.893 803.419 392.387 811.508C394.04 820.557 391.36 830.071 394.893 838.782C401.6 855.309 426.6 861.648 441.573 874.325C452.6 883.67 457.947 896.495 459.427 909.225C460.907 921.955 458.827 934.749 456.76 947.426C454.653 960.325 452.547 973.223 450.44 986.122C449.413 992.377 448.4 998.768 450 1004.94C451.6 1011.12 456.32 1017.15 463.72 1019.48C470.28 1021.55 477.907 1020.38 484.107 1017.7C493.027 1013.85 502.453 1007.22 508.76 1000.97C522.96 986.903 536.04 972.137 547.92 956.792Z" stroke="#D29277" stroke-miterlimit="10"/>
<path d="M571.387 816.402C569.093 812.067 567.347 807.553 566.173 802.944C561.733 785.489 565.213 766.209 553.867 750.832C550.813 746.698 546.773 742.996 544.493 738.556C539.813 729.443 548.573 716.977 562 723.157C567.147 725.53 570.547 729.622 574.56 733.113C584.36 741.625 598.747 746.729 613.293 746.856C624.653 746.961 635.747 744.198 647.08 743.491C658.413 742.774 671.133 744.683 677.96 751.876C686.973 761.368 681.653 774.921 674.907 785.531C666.227 799.2 655.72 812.131 643.613 824.059C635.533 832.022 621.16 847.325 606.667 846.408C599.92 845.975 594.213 842.347 589.547 838.466C581.853 832.064 575.68 824.544 571.387 816.402Z" stroke="#D29277" stroke-miterlimit="10"/>
<path d="M468.053 786.966C464.387 791.67 461.907 797.017 460.813 802.459C458.307 814.925 462.16 827.719 468.453 839.32C471.92 845.701 476.12 851.829 479.16 858.347C495.093 892.403 472.88 929.559 484.907 964.111C486.587 968.941 489.427 974.025 495.12 976.208C503.973 979.604 514.293 974.162 520.213 967.939C526.8 961.021 531.013 952.91 535.053 944.863C542.813 929.38 550.173 913.771 557.107 898.056C559.947 891.622 562.76 884.957 562.253 878.154C561.453 867.396 552.667 858.252 545.52 849.076C537.453 838.73 531.12 827.55 526.707 815.906C522.613 805.138 522.08 792.292 515.827 782.22C512.493 776.851 506.227 772.232 498.707 771.673C495 771.398 491.28 772.116 487.84 773.223C479.52 775.913 472.787 780.901 468.053 786.966Z" stroke="#D29277" stroke-miterlimit="10"/>
<path d="M479.973 822.118C482.933 827.677 487.293 832.697 490.733 838.076C503 857.271 502.813 879.894 499.867 901.273C498.48 911.345 496.6 921.839 500.907 931.384C502.853 935.687 507.733 940.243 513.32 939.03C516.733 938.292 518.827 935.655 520.587 933.24C529.88 920.521 539.44 907.042 539.533 892.35C539.64 875.011 526.667 859.613 517.547 843.845C512.96 835.914 509.28 827.645 506.547 819.197C504.44 812.689 504.28 804.6 496.707 800.339C478.147 789.919 475.053 812.858 479.973 822.118Z" stroke="#D29277" stroke-miterlimit="10"/>
<path d="M511.373 901.441C511.347 902.971 511.413 904.563 512.267 905.934C513.133 907.305 515.027 908.392 516.92 908.118C519.253 907.78 520.44 905.745 521.253 903.983C523.187 899.754 532.32 879.156 521.187 879.008C511.2 878.861 511.44 896.822 511.373 901.441Z" stroke="#D29277" stroke-miterlimit="10"/>
<path d="M584.133 779.235C586.827 788.6 580.12 798.515 583.053 807.838C584.8 813.375 589.72 817.879 594.48 822.171C597.027 824.46 599.893 826.896 603.707 827.339C608.773 827.93 613.2 824.818 616.8 821.939C631.48 810.148 646.387 797.481 652.2 781.587C654.4 775.564 654.96 768.456 649.947 763.594C645.56 759.343 638.053 757.972 631.12 757.941C624.173 757.909 617.227 758.943 610.32 758.341C602.267 757.645 587.733 752.53 580.733 758.131C573.627 763.815 582.4 773.202 584.133 779.235Z" stroke="#D29277" stroke-miterlimit="10"/>
<path d="M597.493 770.27C595.347 773.909 598.52 778.011 599.333 781.977C600.48 787.535 596.853 792.956 595.84 798.536C595.453 800.666 595.493 802.965 596.907 804.8C599.373 807.996 605.24 808.587 609.6 807.142C613.96 805.686 617.2 802.744 620.347 799.938C625.787 795.097 631.613 790.193 634.133 784.023C637.053 776.83 634.24 768.92 624.96 766.747C618.213 765.155 601.107 764.132 597.493 770.27Z" stroke="#D29277" stroke-miterlimit="10"/>
<path d="M609.453 782.23C609.507 783.728 609.547 785.215 609.587 786.713C609.627 787.862 609.707 789.117 610.707 789.961C611.693 790.794 613.347 790.963 614.72 790.625C616.093 790.298 617.253 789.55 618.307 788.769C623.347 784.993 626.293 778.76 620.547 774.373C613.493 769.015 609.307 777.484 609.453 782.23Z" stroke="#D29277" stroke-miterlimit="10"/>
<path d="M782.547 643.707C778.96 643.992 775.253 644.224 771.373 644.456C766.587 644.741 761.267 645.237 758.147 648.127C752.987 652.915 757.387 660.097 761.36 665.54C768.013 674.641 773.24 684.408 776.853 694.533C778.573 699.342 779.973 704.31 783.307 708.56C786.64 712.8 792.44 716.249 798.733 715.932C804.413 715.648 809.253 712.368 812.213 708.529C815.173 704.689 816.653 700.27 818.52 696.02C829.36 671.456 851.227 657.039 878.293 643.961C882.973 641.693 888.267 638.276 887.227 634.015C885 624.934 868.493 629.859 861.347 629.596C854.533 629.343 848.693 625.82 841.88 625.999C831.453 626.273 822.827 633.361 814 636.968C803.36 641.324 793.467 642.832 782.547 643.707Z" stroke="#D29277" stroke-miterlimit="10"/>
<path d="M832.32 637.727C829.493 638.75 827.12 640.396 824.64 641.872C817.227 646.27 807.667 649.719 798.787 651.86C792.347 653.411 778.973 654.223 781.733 662.597C782.453 664.791 784.653 666.436 786.24 668.324C792.387 675.633 789.253 686.433 796.587 693.025C797.92 694.216 799.893 695.271 801.813 694.818C803.253 694.48 804.213 693.415 804.96 692.381C809.267 686.412 810.587 679.43 813.52 672.965C817.293 664.654 823.88 657.165 832.32 651.396C835.987 648.897 853.867 644.731 849.96 639.341C847.747 636.272 835.773 636.472 832.32 637.727Z" stroke="#D29277" stroke-miterlimit="10"/>
<path d="M429.32 939.326C430.36 926.68 430.653 913.402 423.547 902.043C412.667 884.64 386.667 875.222 377.173 857.324C366.813 837.78 377.627 811.086 357.427 797.164C339.933 785.099 313.333 792.387 290.52 795.793C217.44 806.699 146.293 769.764 71.9733 767.665C55.2666 767.19 36.8933 769.089 25.3599 778.665C14.2799 787.873 12.4533 801.636 11.2133 814.314C8.6933 840.09 6.17331 865.877 3.63997 891.654C1.57331 912.79 -0.49339 933.957 -0.266724 955.157C-0.13339 966.98 0.786634 979.098 6.79997 989.919C15.0933 1004.87 32.3733 1015.79 51.2533 1022.4C70.12 1029.03 90.7066 1031.85 111.053 1034.64C185.813 1044.84 260.573 1055.05 335.32 1065.24C346.707 1066.8 358.48 1068.35 369.693 1066.17C427.387 1055.01 426.427 974.289 429.32 939.326Z" stroke="#D29277" stroke-miterlimit="10"/>
<path d="M402.827 922.409C401.24 918.369 398.867 914.551 395.56 911.145C383.067 898.299 359.667 893.415 349.973 879.124C341.987 867.364 345.84 853.052 345.467 839.7C345.107 826.348 336.08 810.369 319.2 810.074C307.853 809.873 298.773 816.95 289.347 821.96C263.427 835.745 228.96 834.891 198.987 827.961C169.013 821.032 141.453 808.724 111.933 800.687C107.347 799.432 102.307 798.282 97.72 799.527C89.7866 801.668 87.2533 809.578 87.4933 816.202C88.1866 834.975 101.933 845.912 120.333 855.879C129.747 860.973 140.547 863.22 150.293 868.008C161.733 873.619 171.693 880.991 180.84 888.743C194.613 900.408 206.96 913.127 217.667 926.659C229.96 942.195 240.547 959.238 258.68 970.64C285.507 987.504 322.707 988.422 356.96 987.725C367.64 987.504 378.987 987.04 387.787 982.241C398.653 976.293 402.827 965.313 405.64 955.104C408.64 944.146 407 933.071 402.827 922.409Z" stroke="#D29277" stroke-miterlimit="10"/>
<path d="M225.773 976.018C216 963.404 210.107 949.134 200.973 936.225C177.213 902.665 133.987 881.139 92.5201 861.036C75.7201 852.894 58.6534 844.647 39.6934 840.375C32.88 838.835 25.52 837.854 18.8 839.626C12.5467 841.282 7.62669 845.132 3.49336 849.192C-7.05331 859.56 -13.9466 871.931 -19.9466 884.366C-32.3333 910.027 -41.3866 936.657 -47.6666 963.668C-54.96 995.055 -57.7066 1029.81 -35.76 1056.59C-22.6 1072.64 -1.73331 1084 20.5734 1091.39C49.24 1100.88 80.4667 1104.34 111.427 1106.45C168.653 1110.35 228.653 1109.51 280.24 1089.52C291.733 1085.07 303.133 1079.35 309.453 1070.54C317.04 1059.97 315.48 1047.47 310.867 1036.35C305.867 1024.27 302.48 1019.75 288.067 1015.74C262.453 1008.6 239.973 994.359 225.773 976.018Z" stroke="#D29277" stroke-miterlimit="10"/>
<path d="M188.773 951.086C178.653 937.976 161.227 929.697 147.253 919.023C136.053 910.448 127.027 900.26 116.173 891.411C100.8 878.871 81.7866 869.147 61.0266 863.198C52.1733 860.657 40.3066 859.528 35.12 865.751C33.4 867.818 32.84 870.339 32.32 872.775C24.7333 908.909 20.88 945.517 20.8133 982.146C20.8 990.046 21 998.135 24.4667 1005.55C33.12 1024.04 58.9733 1033.19 82.72 1039.2C103.707 1044.52 125.067 1048.94 146.667 1052.42C165.133 1055.39 184.227 1057.69 202.747 1054.93C215.653 1053 230.48 1048 238.8 1039.56C248.693 1029.53 241.36 1022.25 231.653 1014.38C220.213 1005.1 210.413 997.365 204.507 984.983C199.147 973.698 196.827 961.506 188.773 951.086Z" stroke="#D29277" stroke-miterlimit="10"/>
<path d="M172.467 968.477C160.213 958.447 144.187 951.771 131.507 942.079C119.093 932.597 110.333 920.573 99.68 909.847C89.0133 899.111 75.36 889.175 58.4 886.634C52.8666 885.8 45.92 886.338 43.4133 890.325C42.3333 892.034 42.3466 894.027 42.3733 895.936C42.6133 911.06 42.8666 926.184 43.1066 941.309C43.2 946.962 43.3333 952.762 45.9866 958.015C48.3333 962.655 52.4933 966.547 56.5867 970.344C65.6267 978.739 74.6666 987.145 83.7066 995.541C89.36 1000.79 95.1066 1006.11 102.36 1009.94C113.827 1015.98 127.947 1017.73 141.587 1019.34C157 1021.17 179.4 1021.12 186.453 1007.44C193.133 994.486 183.733 977.695 172.467 968.477Z" stroke="#D29277" stroke-miterlimit="10"/>
<path d="M73.8 906.103C70.8933 904.648 67.2667 903.53 64.08 904.563C59.7867 905.945 58.6667 910.543 60.0267 914.045C61.3867 917.547 64.4534 920.468 66.3867 923.801C71.92 933.367 67.6933 944.568 70.4267 954.661C72.96 964.027 79.2 973.034 89.4933 978.381C97.5733 982.579 107.307 984.213 116.827 985.542C126.853 986.945 136.933 988.105 147.08 988.801C149.827 988.991 152.8 989.107 155.133 987.936C157.84 986.586 158.92 983.823 158.76 981.292C158.36 975.027 151.933 970.123 145.573 966.368C130.693 957.583 113.693 950.854 102.16 938.988C91.76 928.304 89.2667 913.855 73.8 906.103Z" stroke="#D29277" stroke-miterlimit="10"/>
<path d="M113.067 959.407C108.773 957.034 104.987 954.081 101.947 950.706C99.5733 948.08 97.5867 945.158 94.44 943.091C91.3067 941.024 86.5067 940.054 83.1467 941.889C79.2 944.04 79.28 948.691 80.6133 952.33C81.9333 955.905 84.0267 959.259 86.4133 962.476C89.1733 966.199 92.4 969.827 96.8534 972.327C101.307 974.827 106.693 976.05 112.027 976.999C120.653 978.539 129.44 979.488 138.267 979.826C139.08 979.857 139.907 979.879 140.667 979.678C142.133 979.277 143.067 978.075 143.28 976.862C144.2 971.483 134.333 967.729 129.347 966.02C123.533 964.027 118.36 962.329 113.067 959.407Z" stroke="#D29277" stroke-miterlimit="10"/>
<path d="M79.16 917.462C78.2934 916.165 77.1734 914.878 75.48 914.277C73.7867 913.676 71.4267 914.055 70.6934 915.405C69.8534 916.956 71.4667 918.591 72.6534 919.993C74.6267 922.303 75.6534 925.098 75.5734 927.882C75.5334 929.169 75.3067 930.572 76.2134 931.637C78.9867 934.907 82.2801 931.5 82.5201 929.201C82.9334 925.214 81.5067 920.943 79.16 917.462Z" stroke="#D29277" stroke-miterlimit="10"/>
<path d="M374.213 932.08C367.48 915.015 341.867 906.557 333.227 890.051C327.72 879.504 330.093 867.565 328.84 856.206C327.587 844.836 320.013 831.99 305.733 830.345C303.347 830.071 300.867 830.145 298.6 830.798C289.72 833.351 288.293 842.527 286.64 849.888C284.8 858.083 280.84 865.972 275.107 872.944C268.48 880.981 259.44 887.92 255.107 896.875C250.973 905.407 251.587 915.005 254.573 923.822C264.213 952.235 300.187 973.593 337.36 972.992C365.693 972.538 382.773 953.807 374.213 932.08Z" stroke="#D29277" stroke-miterlimit="10"/>
<path d="M351.64 926.037C347.84 922.831 343 920.542 338.68 917.779C326 909.679 317.92 897.233 317 884.366C316.307 874.716 319.387 864.781 316.013 855.489C314.853 852.314 312.427 848.96 308.333 848.275C304.16 847.579 300.027 850.099 298.187 853.137C296.347 856.185 296.173 859.665 295.667 863.019C294.44 871.077 291 878.924 285.667 885.864C281.467 891.317 276.067 896.295 273.373 902.317C269.907 910.069 271.413 918.865 275.933 926.269C280.467 933.673 287.8 939.811 295.92 944.947C306.107 951.391 318.427 956.58 331.467 956.18C351.053 955.579 367.28 939.21 351.64 926.037Z" stroke="#D29277" stroke-miterlimit="10"/>
<path d="M306.053 898.172C302.373 895.398 296.093 894.291 292.227 896.906C289.387 898.826 288.693 902.064 288.653 905.017C288.533 915.194 294.387 924.95 303.2 932.217C309.427 937.354 325.053 947.616 333.413 939.558C339.293 933.884 332.213 925.425 326.747 921.48C321.653 917.8 317.773 916.017 314.52 910.913C311.747 906.567 310.693 901.673 306.053 898.172Z" stroke="#D29277" stroke-miterlimit="10"/>
<path d="M120.76 815.157C116.36 814.05 111.067 813.217 107.493 815.537C103.627 818.047 104.027 822.909 106.067 826.527C111.533 836.188 124.787 841.208 136.787 845.891C164.44 856.659 191.773 870.465 207.28 891.538C211.893 897.803 215.373 904.605 220.867 910.406C222.213 911.82 223.76 913.222 225.853 913.823C231.16 915.363 236.533 910.913 237.4 906.504C238.267 902.085 236.44 897.623 236.52 893.152C236.76 879.43 253.693 870.223 263.36 858.821C267.413 854.033 269.773 846.703 264.027 843.149C255.587 837.928 240.8 844.151 231.533 845.132C219.56 846.408 206.72 843.455 195.48 840.428C169.8 833.477 146.547 821.96 120.76 815.157Z" stroke="#D29277" stroke-miterlimit="10"/>
<path d="M213.107 853.664C205.973 851.112 199.147 847.811 191.467 846.629C188.987 846.25 186.053 846.207 184.36 847.695C182.6 849.245 183.12 851.797 184.733 853.432C186.347 855.067 188.773 856.069 191.027 857.145C197.56 860.245 203.267 864.411 207.68 869.316C211 872.996 214.733 877.616 220.453 877.458C224.227 877.352 227.267 875.116 229.933 873.007C232.8 870.739 235.733 868.419 237.48 865.529C244.667 853.727 221.867 856.797 213.107 853.664Z" stroke="#D29277" stroke-miterlimit="10"/>
<path d="M445.08 821.707C443.573 814.546 443.96 807.131 446.253 800.107C447.6 795.983 449.6 791.701 448.227 787.577C445.307 778.823 434.827 782.968 429.107 786.776C419.107 793.431 411.813 802.849 410.093 813.09C408.373 823.342 412.587 834.311 422.08 841.419C428.507 846.239 436.8 848.96 442.467 854.508C444.413 856.417 446.093 858.537 448.573 860.013C451.04 861.49 454.64 862.154 457.213 860.794C460.853 858.874 460.253 854.539 458.853 851.27C455.547 843.497 450.173 836.325 447.107 828.489C446.24 826.274 445.56 823.996 445.08 821.707Z" stroke="#D29277" stroke-miterlimit="10"/>
<path d="M421.227 814.609C420.6 821.275 423.36 828.932 429.293 833.277C431.4 834.817 434.84 835.988 436.96 834.458C438.013 833.699 438.347 832.486 438.347 831.368C438.333 825.662 431.533 821.211 430.667 815.548C430.307 813.196 433.147 805.402 426.893 805.982C424.36 806.214 422.88 808.344 422.187 810.285C421.693 811.635 421.373 813.101 421.227 814.609Z" stroke="#D29277" stroke-miterlimit="10"/>
<path d="M678.013 647.673C668.36 646.977 658.667 646.27 649.253 644.456C635.04 641.714 621.813 636.504 608.733 631.336C599.773 627.792 590.8 624.259 581.84 620.715C570.68 616.307 557.973 611.793 546.173 614.999C536.96 617.509 530.707 624.154 525.453 630.64C521.4 635.66 517.587 640.797 514.027 646.049C513.12 647.399 512.2 648.833 512.24 650.363C512.307 652.873 515.053 654.95 518.107 655.668C521.147 656.395 524.413 656.058 527.547 655.636C540.667 653.875 553.76 650.69 567.013 651.681C594.933 653.759 616.987 673.713 644.96 675.295C659.133 676.097 672.907 672.047 686.533 668.872C700.16 665.698 715.12 663.409 728.307 667.575C732.2 668.809 736.4 670.602 740.333 669.474C755.533 665.097 736.373 652.229 728.96 650.932C713.013 648.158 694.32 648.854 678.013 647.673Z" stroke="#D29277" stroke-miterlimit="10"/>
<path d="M420.52 694.301C414.147 697.929 407.6 701.684 403.373 706.915C402.773 707.664 402.2 708.455 402.08 709.341C401.773 711.545 404.48 713.443 407.267 713.665C410.053 713.886 412.747 712.863 415.093 711.65C420.733 708.75 425.347 704.647 431.267 702.116C435.2 700.429 439.587 699.479 443.573 697.887C447.56 696.294 451.36 693.805 452.507 690.377C454.36 684.861 450 678.67 442.96 681.539C435.067 684.766 427.72 690.198 420.52 694.301Z" stroke="#D29277" stroke-miterlimit="10"/>
<path d="M597.067 127.143C597.173 128.039 597.293 128.946 597.4 129.843C601.293 160.154 611.373 194.147 644.773 209.324C657.013 214.882 671.133 217.202 685.067 219.069C768.467 230.217 853.653 227.644 937.307 219.723C980.133 215.662 1022.39 208.87 1065.09 204.356C1104.57 200.18 1145.11 199.716 1184.87 197.279C1231.97 194.389 1286.77 184.897 1333.71 189.78C1352.23 191.711 1371.63 203.396 1369.27 218.057C1368.12 225.176 1362.16 231.166 1356.15 236.535C1309 278.617 1242.92 309.836 1215.52 361.716C1208.15 375.669 1203.73 390.93 1192.08 402.922C1176.65 418.785 1151.47 426.094 1128.99 435.28C1071.97 458.578 1026.23 498.635 1002.71 545.853C996.827 557.666 989.293 571.946 973.387 573.592C961.253 574.847 949.827 567.654 937.613 568.223C925.16 568.803 915.613 577.114 903.84 580.373C883.76 585.932 862.6 576.06 841.56 573.528C797.2 568.192 756.867 595.74 712.173 598.778C641.267 603.598 574.28 546.676 507.16 565.418C476.893 573.866 459.827 594.58 439.093 612.373C420.773 628.087 398.707 643.855 376.08 655.868C325.667 682.615 262 694.628 202.12 684.798C182.333 681.55 163.24 676.128 144.333 670.496C88.24 653.769 33.12 634.985 -20.76 614.208C-45.8267 604.547 -71.2267 594.095 -89.88 577.694C-114.04 556.443 -124.267 527.333 -127.413 498.867C-133.173 446.955 -118.027 395.234 -107.28 343.818C-95.88 289.206 -88.6533 234.742 -91.88 179.55C-95.28 121.426 -96.04 63.1969 -94.0133 5.03087C-92.8267 -30.0059 -89.9067 -66.9516 -65.5067 -96.2086C-34.44 -133.492 23.5333 -149.386 77.3333 -162.875C163.72 -184.528 255.347 -206.392 343.52 -189.812C483.4 -163.508 568.507 -64.8949 587.627 43.7484C592.48 71.3918 593.653 99.3621 597.067 127.143Z" stroke="#D29277" stroke-miterlimit="10"/>
<path d="M26.4534 524.665C47.7867 534.463 70.3067 542.858 94.2134 547.573C144.253 557.423 199.173 548.88 244.827 531.404C291.787 513.432 337.32 491.273 389.213 483.332C445.773 474.673 506.573 484.935 553.733 511.112C574.053 522.387 591.8 536.382 612.4 547.33C633 558.278 657.827 566.177 682.32 563.003C704 560.197 722.413 549.197 742.973 543.08C764.84 536.572 789.347 535.729 811.84 540.738C828.067 544.345 843.093 550.853 859.347 554.386C875.6 557.919 894.453 558.004 907.72 549.777C912.613 546.739 916.56 542.689 922.08 540.411C930.92 536.752 941.587 538.418 951.56 538.397C977.213 538.344 985.72 518.337 993.987 502.78C1013.79 465.507 1050.4 433.983 1095.67 415.22C1120.55 404.905 1149.05 397.638 1166.52 380.236C1184.95 361.874 1186.77 336.445 1199.96 315.457C1215.75 290.345 1246.33 273.554 1270.4 252.967C1275.37 248.716 1280.4 243.464 1279.31 237.737C1277.44 228.034 1261.2 225.83 1248.8 226.083C1081.96 229.468 915.827 245.795 748.96 248.252C694.413 249.054 629.907 244.561 583.907 218.584C541.44 194.6 524.773 151.284 516.373 110.552C507.973 69.8203 504.52 26.9894 478.427 -8.75391C460.173 -33.7605 431.96 -53.4199 401.373 -69.1769C358.573 -91.2199 310.227 -105.764 259.04 -100.1C203.4 -93.9516 150.067 -85.6512 97.6667 -68.9555C79.6934 -63.2285 61.6267 -56.5418 48.1867 -45.5098C29.9601 -30.5437 9.97336 1.11798 50.4134 4.29259C81.3734 6.71837 111.44 -4.63008 142.493 -6.00117C145.973 -6.15938 149.56 -6.16992 152.8 -5.16796C160.08 -2.92148 163.627 4.01836 162.747 10.1566C161.867 16.2949 157.547 21.7582 153 26.7785C132.64 49.2645 105.88 67.5106 81.76 87.5391C46.2267 117.049 15.8934 151.189 -1.10662 189.664C-11.7066 213.637 -16.8533 239.298 -14.92 264.695C-14 276.761 -11.9733 289.607 -6.89332 301.071C-2.17332 311.713 4.96002 320.288 2.28002 332.364C-0.226647 343.68 -11.2666 352.677 -15.5733 363.656C-24.6666 386.88 -2.01328 410.063 1.52005 434.204C4.08005 451.67 -3.54665 469.019 -4.71998 486.58C-5.18665 493.52 -4.54662 500.755 -0.359954 506.862C4.49338 513.949 13.4534 518.59 22.2 522.714C23.6534 523.368 25.0534 524.021 26.4534 524.665Z" stroke="#D29277" stroke-miterlimit="10"/>
<path d="M39.92 194.273C25.4 217.297 12.5867 242.009 13.3333 267.722C14.08 293.435 31.56 320.382 62.0533 329.337C88.0267 336.962 116.853 330.455 143.293 323.926C168.147 317.788 193 311.65 217.853 305.522C244.653 298.909 272.04 292.054 294.467 278.701C316.893 265.349 333.8 243.981 330.92 221.896C328.24 201.224 309.427 184.159 301.987 164.236C295.933 148.036 297.667 130.739 299.293 113.896C301.48 91.2199 303.293 67.8481 294.307 46.2481C287.493 29.8688 262.2 -0.611721 235.36 2.99531C211.773 6.15937 176.627 43.3793 160.667 56.8898C112.373 97.7801 71.5067 144.186 39.92 194.273Z" stroke="#D29277" stroke-miterlimit="10"/>
<path d="M334.107 85.5563C331.893 106.07 323.507 126.71 328.88 146.855C334.347 167.337 353.28 184.096 360.707 204.188C366.813 220.736 364.8 238.697 371.573 255.076C382.267 280.958 413.373 298.656 445.96 307.42C478.547 316.195 513.4 317.756 547.36 322.175C630.387 332.965 709.627 361.473 774.48 403.871C796.08 417.994 817.253 434.12 844.32 439.836C872.227 445.732 901.68 439.562 929.467 433.329C987.68 420.261 1045.84 406.782 1102.12 389.201C1124.75 382.124 1149.64 372.168 1156.15 353.626C1160.12 342.288 1156.15 330.012 1159.45 318.547C1165 299.299 1188.67 287.561 1206.19 273.491C1210.83 269.768 1215.37 265.243 1215.23 260.023C1214.89 248.389 1194.72 245.531 1180.05 246.333C1034.68 254.317 889.32 262.29 743.947 270.274C682 273.67 613.96 275.727 564.467 246.048C527.32 223.763 508.013 187.313 498.507 151.2C489 115.098 487.667 77.8676 477.893 41.8078C473.227 24.5532 466.347 7.20354 452.613 -6.69724C433.68 -25.8398 403.533 -36.3339 373.24 -40.3523C341.32 -44.5816 294.067 -34.1086 305.627 -0.632788C309.973 11.9602 321.96 23.0239 327.027 35.775C333.413 51.7957 335.907 68.8078 334.107 85.5563Z" stroke="#D29277" stroke-miterlimit="10"/>
<path d="M713.347 285.82C708.093 285.957 702.853 286.095 697.6 286.232C676.32 286.791 642.853 292.338 652.147 315.71C656.107 325.666 667.04 332.838 678.147 338.47C710.187 354.723 748.013 363.256 778.547 381.227C804.533 396.52 828.16 419.259 862.733 420.599C903.947 422.191 943.787 410.432 981.72 399.125C1015.93 388.927 1050.15 378.728 1084.36 368.529C1094.79 365.418 1105.77 362 1112.6 355.029C1120.23 347.245 1121.09 336.751 1124.37 327.259C1127.75 317.503 1133.99 308.37 1142.44 300.797C1151.61 292.581 1167.69 286.643 1174.39 277.193C1177.99 272.12 1177.61 264.769 1171.6 261.425C1167.01 258.884 1160.87 259.358 1155.32 259.949C1108.11 264.948 1060.91 269.937 1013.69 274.936C969.6 279.598 923.68 280.273 879 281.454C823.787 282.909 768.573 284.365 713.347 285.82Z" stroke="#D29277" stroke-miterlimit="10"/>
<path d="M478.253 172.621C476.787 168.866 475.44 165.09 474.213 161.304C466.613 138.006 462.707 114.107 458.88 90.2813C455.293 67.9535 454.693 42.4617 443.28 21.6106C436.947 10.0407 427.027 -0.516772 413.707 -7.44607C390.44 -19.5539 333.347 -19.5644 345.133 13.1625C347.827 20.6613 353.28 27.327 357.107 34.5094C376.693 71.2758 351.653 115.056 367.693 152.888C374.68 169.372 389.067 183.495 395.267 200.18C401.893 218.046 398.827 238.096 409.787 254.57C421.64 272.405 447.013 281.675 471.387 287.518C487.707 291.431 504.36 294.363 521 297.295C553.387 303.001 586.773 308.739 619.453 304.256C624.907 303.507 630.573 302.368 634.6 299.373C638.627 296.378 640.307 290.988 636.867 287.561C634.533 285.24 630.627 284.397 627 283.658C599.307 278.005 571.693 270.517 548.453 257.312C513.16 237.252 491.133 205.706 478.253 172.621Z" stroke="#D29277" stroke-miterlimit="10"/>
<path d="M61.3467 203.586C48.88 221.611 36.96 240.722 35.9334 261.246C35.6134 267.785 36.4667 274.514 40.0534 280.42C46.32 290.735 60.0933 297.084 74.1333 299.816C97.96 304.467 123.147 300.364 146.333 294.015C169.52 287.666 191.773 279.081 215.573 274.377C242.587 269.04 273.2 268.017 293.24 252.724C314.027 236.862 314.547 207.404 294.333 191.088C284.853 183.442 271.747 178.485 264.72 169.32C260.333 163.603 258.813 156.779 258.573 150.093C257.96 133.059 265.04 116.532 270.387 100.027C275.733 83.5207 279.32 65.7176 271.933 49.7074C266.44 37.8 247.987 21.7899 229.8 24.2473C214.413 26.325 197.84 48.5473 187.933 57.7969C157.04 86.6426 128.507 117.07 102.573 148.816C88 166.683 74.24 184.95 61.3467 203.586Z" stroke="#D29277" stroke-miterlimit="10"/>
<path d="M203.693 65.2535C195.747 75.1465 191.333 87.1805 193.84 98.7293C195.667 107.156 200.973 114.824 204.107 123.008C217.56 158.034 190 195.202 194.6 231.63C195.773 240.912 200 251.005 210.413 255.403C221.64 260.149 235.48 256.479 246.813 251.88C256.507 247.946 265.96 243.232 272.8 236.524C279.627 229.816 283.533 220.799 280.96 212.425C276.987 199.526 259.987 192.343 249.573 181.923C236.48 168.813 234.28 150.694 237.373 134.167C240.467 117.64 248.213 101.904 253.053 85.6406C255.507 77.4035 257.227 68.7762 254.973 60.4969C253.053 53.4199 244.387 40.6266 233.32 41.7867C223.147 42.8414 208.733 58.9781 203.693 65.2535Z" stroke="#D29277" stroke-miterlimit="10"/>
<path d="M213.92 93.2766C214.813 96.6094 217.093 100.301 221.347 100.86C226.16 101.493 229.96 97.7485 232.16 94.3102C235.413 89.2371 237.8 83.7106 238.053 78.0258C238.453 68.8606 232.693 58.6723 221.733 67.057C213.787 73.132 211.747 85.1977 213.92 93.2766Z" stroke="#D29277" stroke-miterlimit="10"/>
<path d="M216.067 212.509C214.373 220.567 213.307 230.143 220.973 235.617C228.747 241.165 242.48 238.56 248.067 231.546C253.653 224.532 251.907 214.956 245.907 208.164C242.013 203.755 232.48 185.963 226.733 186.279C216.92 186.806 217.2 207.077 216.067 212.509Z" stroke="#D29277" stroke-miterlimit="10"/>
<path d="M112.427 176.017C94 195.465 72.7467 214.523 65.6667 238.17C62.16 249.877 63.16 263.682 74.2267 271.941C85.88 280.631 104.213 280.093 119.813 277.225C136.947 274.071 154.84 267.817 162.76 255.393C172.88 239.498 163.013 220.556 163.107 202.764C163.213 185.15 173.24 168.676 179.187 151.696C182.787 141.423 187.067 94.711 160.293 116.385C150.92 123.968 145.52 136.698 138.467 145.747C130.387 156.146 121.693 166.25 112.427 176.017Z" stroke="#D29277" stroke-miterlimit="10"/>
<path d="M104.613 224.923C100.853 229.416 96.92 233.919 94.7467 239.024C92.5734 244.129 92.3867 250.045 95.9201 254.654C102.187 262.828 118.293 263.355 127.787 257.449C137.28 251.543 140.96 241.344 140.947 231.789C140.947 224.965 139.36 218.152 139.853 211.338C140.227 206.213 154.013 172.336 135.427 182.039C129.813 184.971 124.493 198.946 120.973 203.839C115.827 211.011 110.373 218.046 104.613 224.923Z" stroke="#D29277" stroke-miterlimit="10"/>
<path d="M369.64 16.0946C370.027 23.5723 373.68 30.6598 376.773 37.7368C383.627 53.3883 388 70.0207 386.027 86.5161C384.08 102.874 375.96 119.032 379.053 135.274C384.12 161.926 417.893 181.48 420.373 208.364C421.093 216.116 419.08 223.984 420.8 231.63C422.52 239.277 429.827 247.134 439.653 246.945C450.573 246.723 457.093 237.263 459.867 228.899C467.627 205.453 464.133 180.584 457.8 156.864C451.467 133.144 442.32 109.835 438.773 85.7567C436.12 67.7532 436.573 49.2329 429.507 31.9887C424.453 19.6383 414.4 7.44613 399.867 0.917611C382.52 -6.86598 368.787 -0.337468 369.64 16.0946Z" stroke="#D29277" stroke-miterlimit="10"/>
<path d="M477.12 262.417C479.653 266.266 484.067 269.125 488.653 271.498C506.773 280.895 528.613 284.428 549.867 287.771C552.52 288.193 555.373 288.584 557.827 287.687C562.253 286.063 562.8 280.884 560.16 277.646C557.52 274.398 552.853 272.626 548.453 270.97C535.227 266.024 521.76 260.592 512.347 251.733C505.347 245.141 497.84 224.701 484.267 230.228C473.173 234.742 472.2 254.918 477.12 262.417Z" stroke="#D29277" stroke-miterlimit="10"/>
<path d="M396.347 40.1941C401.12 47.693 404.093 55.8984 405.027 64.2621C406.613 78.3949 402.493 92.475 400.653 106.587C398.813 120.698 399.627 135.918 409.773 147.625C412.373 150.63 415.707 153.415 420 154.733C424.293 156.052 429.707 155.577 432.787 152.866C435.613 150.377 435.92 146.718 435.693 143.374C434.693 128.102 425.933 113.854 422.56 98.7926C419.027 82.9617 421.547 66.6668 419.693 50.6566C418.507 40.3734 413.96 19.7543 400.627 14.3859C395.013 12.1289 388.88 13.9219 386.92 18.784C384.16 25.6711 392.693 34.4777 396.347 40.1941Z" stroke="#D29277" stroke-miterlimit="10"/>
<path d="M430.653 200.865C431.12 203.639 432.267 206.761 435.493 207.932C438.947 209.187 443.2 207.373 445.067 204.757C446.933 202.141 447.04 198.977 447.04 195.971C447.04 189.105 445.76 160.977 429.267 169.246C423.293 172.241 424.04 175.69 425.507 180.109C427.853 187.175 429.4 193.493 430.653 200.865Z" stroke="#D29277" stroke-miterlimit="10"/>
<path d="M953 289.839C929.053 289.723 903.827 288.499 882.507 297.127C876.173 299.689 869.827 303.824 869.387 309.435C868.933 315.236 874.88 319.939 880.08 324.042C889.027 331.109 897.587 340.063 896.333 350.009C895.107 359.733 884.907 367.084 874.973 372.895C866.467 377.873 856.467 384.613 858.813 392.776C860.267 397.86 866.4 401.361 872.733 402.806C884.653 405.527 897.32 402.553 909.147 399.589C956.653 387.703 1004.15 375.806 1051.65 363.92C1066.93 360.091 1083.52 355.493 1091.85 344.651C1098.87 335.528 1098.32 324.074 1102.47 313.917C1106.52 303.982 1115.29 295.302 1126.65 289.997C1130.25 288.309 1134.17 286.917 1137.04 284.513C1139.92 282.108 1141.47 278.3 1139.32 275.453C1136.72 272.014 1130.48 271.846 1125.57 272.848C1070.04 284.323 1010.45 290.123 953 289.839Z" stroke="#D29277" stroke-miterlimit="10"/>
<path d="M861.4 350.473C861.907 340.137 846 332.88 846.053 322.534C846.08 318.231 848.973 314.118 848.52 309.825C847.987 304.731 842.68 300.565 836.693 298.645C830.693 296.726 824.067 296.61 817.6 296.515C781.373 296.009 745.16 295.513 708.933 295.007C698.427 294.859 685.76 295.682 680.893 303.043C677.773 307.758 679.333 313.759 683.253 318.094C687.16 322.418 693.053 325.35 699.027 327.797C722.787 337.521 750.76 341.55 770.693 355.662C780.08 362.306 787.24 370.934 797.68 376.523C808.507 382.324 824.987 382.862 836.2 377.23C845.8 372.389 860.947 359.743 861.4 350.473Z" stroke="#D29277" stroke-miterlimit="10"/>
<path d="M817.12 367.738C827.933 367.327 838.24 358.741 835.027 350.557C833.293 346.138 828.333 342.963 825.92 338.745C821.387 330.813 826.587 320.92 821.773 313.095C818.333 307.505 810.4 304.372 802.6 303.56C794.8 302.748 786.92 303.845 779.107 304.541C764.6 305.849 749.893 305.786 735.4 304.372C731.24 303.961 726.653 303.518 723.147 305.343C717.067 308.496 718.76 316.427 724.227 320.214C729.693 324 737.267 325.044 744.187 326.805C755.893 329.79 766.573 335.232 774.84 342.425C786.067 352.192 798 368.466 817.12 367.738Z" stroke="#D29277" stroke-miterlimit="10"/>
<path d="M769.12 311.449C765.173 311.745 760.333 313.052 759.947 316.174C759.693 318.168 761.507 319.961 763.48 321.226C769.747 325.255 778.373 326.479 784.507 330.655C789.28 333.904 792.027 338.576 795.4 342.784C798.773 346.992 803.44 351.095 809.653 351.897C810.387 351.991 811.173 352.023 811.827 351.749C812.4 351.506 812.773 351.042 813.067 350.578C816.84 344.472 809.787 338.723 807.013 333.471C804.707 329.105 805.92 324.675 804.16 320.467C800.08 310.679 779.987 310.637 769.12 311.449Z" stroke="#D29277" stroke-miterlimit="10"/>
<path d="M1081.95 312.546C1086.75 307.568 1093.31 301.409 1089.44 295.945C1085.8 290.788 1076.32 291.473 1069.01 292.718C1034.47 298.614 998.973 301.05 963.653 299.953C947.893 299.468 931.973 298.287 916.427 300.407C908.613 301.472 899.547 304.657 898.773 310.89C897.88 318.178 908.507 322.397 914.92 327.681C920.08 331.931 922.907 337.901 922.547 343.786C922.253 348.764 919.867 354.037 922.653 358.509C923.747 360.271 925.56 361.695 927.52 362.897C935.56 367.822 946.253 369.362 956.4 368.761C966.533 368.16 976.307 365.618 985.96 363.097C1008.88 357.107 1031.81 351.116 1054.73 345.125C1064.88 342.478 1068.99 342.868 1071.01 334.673C1073.04 326.531 1075.43 319.307 1081.95 312.546Z" stroke="#D29277" stroke-miterlimit="10"/>
<path d="M1060.84 319.454C1062.36 316.944 1063.53 313.938 1061.99 311.439C1060.11 308.401 1055.17 307.547 1050.89 307.357C1035 306.682 1019.37 310.31 1003.59 311.934C984.187 313.938 964.28 312.894 945.387 308.876C940.933 307.927 936.373 306.809 931.787 307.23C927.2 307.652 922.533 310.131 921.92 313.748C921.227 317.872 925.787 321.321 930.253 323.515C934.72 325.709 939.893 327.786 941.8 331.657C944.627 337.405 938.707 343.955 940.76 349.903C942.107 353.795 946.733 356.569 951.667 357.613C956.6 358.657 961.827 358.246 966.867 357.623C983.893 355.535 1000.33 351.179 1016.68 346.845C1035.53 341.877 1051.91 334.167 1060.84 319.454Z" stroke="#D29277" stroke-miterlimit="10"/>
<path d="M972.587 321.574C969.627 321.69 966.427 322.028 964.333 323.684C962.853 324.854 962.187 326.51 961.667 328.113C960.293 332.343 959.987 337.542 964.213 340.358C968.227 343.027 974.2 342.172 979.28 341.181C987.987 339.472 996.693 337.764 1005.4 336.055C1009.99 335.159 1014.6 334.252 1018.95 332.786C1022.32 331.646 1025.63 330.107 1027.73 327.734C1038.17 315.974 1016.99 320.688 1011.09 321.384C998.347 322.882 985.387 321.047 972.587 321.574Z" stroke="#D29277" stroke-miterlimit="10"/>
<path d="M918.027 373.676C914.253 372.263 910.333 370.986 906.187 371.029C904.56 371.05 902.933 371.271 901.347 371.566C894.413 372.843 872.96 382.314 878.16 390.118C878.987 391.363 880.6 392.186 882.28 392.66C885.733 393.62 889.52 393.282 893.133 392.818C902.253 391.648 911.227 389.728 919.853 387.113C923.92 385.879 928.627 384.096 927.28 379.835C926.413 377.082 922.827 375.511 919.6 374.277C919.093 374.077 918.56 373.876 918.027 373.676Z" stroke="#D29277" stroke-miterlimit="10"/>
<path d="M91.9334 349.281C172.467 346.623 251.787 324.074 316.027 285.557C321.253 282.424 326.6 279.102 332.973 277.9C352.493 274.219 367.32 290.714 379.773 303.17C403.253 326.668 438.853 342.362 476.467 345.779C504.133 348.289 532.347 344.44 559.907 347.625C581.96 350.167 602.76 357.117 623.267 363.994C644.68 371.176 666.173 378.401 686.04 387.967C732.4 410.295 770.28 445.468 822.72 456.532C829.933 458.051 837.573 459.169 843.56 462.691C858.8 471.646 854.92 491.811 841.173 502.179C827.44 512.547 807.827 515.964 789.493 519.856C768.053 524.412 747.013 530.181 726.6 537.089C707.773 543.47 688.2 551 667.853 549.134C645.333 547.066 627.293 534.03 610.32 522.123C583.2 503.107 554.187 485.23 520.973 473.787C469.227 455.952 408.507 455.108 356 471.487C325.853 480.895 298.813 495.534 269.747 506.893C205.453 532.016 124.827 539.525 63.8 509.762C54.6667 505.311 45.92 499.922 40.4 492.634C29.7333 478.533 33.2267 460.74 30.2934 444.477C27.5467 429.247 19 415.083 13.9734 400.222C9.8667 388.083 5.45337 363.604 20.2267 354.259C35.1067 344.862 73.88 349.882 91.9334 349.281Z" stroke="#D29277" stroke-miterlimit="10"/>
<path d="M157.773 510.047C171.293 511.049 185.053 511.218 198.347 509.045C216.24 506.113 232.56 499.078 248.427 491.927C278.387 478.417 307.8 464.136 336.613 449.128C349.467 442.431 362.96 434.848 368.28 423.425C372.733 413.891 370.68 403.323 368.587 393.304C364.533 373.929 360.467 354.565 356.413 335.19C353.813 322.755 348.867 308.064 333.72 304.161C320.013 300.639 306.107 308.148 294.52 314.919C276.4 325.487 257.427 335.275 236.907 342.605C186.413 360.64 129.267 362.939 73.9067 361.209C63.9733 360.904 53.3067 360.608 44.92 364.827C35.9067 369.362 31.6533 378.274 31.6133 386.733C31.56 395.181 35.0534 403.365 38.5067 411.36C45.0667 426.558 51.6267 441.756 58.1867 456.954C62.5734 467.121 65.5334 481.085 74.3867 489.649C89.9467 504.668 135.013 510.047 157.773 510.047Z" stroke="#D29277" stroke-miterlimit="10"/>
<path d="M382.373 392.597C384.707 405.042 389.12 418.057 400.787 426.621C410.787 433.962 424.64 436.925 438.053 438.961C468.053 443.528 499.253 444.836 527.44 454.148C569.507 468.039 599.44 497.802 637.08 518.126C647.36 523.673 658.533 528.609 670.8 530.244C701.493 534.336 729.653 517.493 759.453 510.342C770.533 507.684 782.307 506.282 792.267 501.62C802.227 496.958 810.067 487.645 806.773 478.87C802.347 467.037 783.12 464.569 767.747 462.428C741.453 458.757 716.4 449.708 695.68 436.398C680.467 426.632 667.72 414.724 653.84 403.787C629.4 384.528 599.947 367.727 565.96 363.045C545.547 360.228 524.613 361.937 503.893 361.357C470.52 360.418 437.453 353.436 407.933 341.096C392.133 334.484 379.12 334.241 379.24 349.091C379.36 363.414 379.693 378.274 382.373 392.597Z" stroke="#D29277" stroke-miterlimit="10"/>
<path d="M310.32 440.849C321.8 433.867 333.213 425.63 337.133 414.608C339.68 407.436 338.773 399.811 337.84 392.396C335.893 376.85 333.933 361.304 331.987 345.758C331 337.911 327.88 328.145 318.053 326.816C311.68 325.962 305.76 329.368 300.72 332.575C280.453 345.495 259.453 359.132 248.907 377.958C241.427 391.3 239.8 406.308 232.6 419.755C224.64 434.616 209.44 447.261 190.333 452.914C163.493 460.856 132.507 454.686 105.627 462.533C98.6266 464.579 91.2133 468.555 90.88 474.462C90.44 482.425 102.507 486.654 112.413 488.13C144.213 492.877 184.88 494.153 215.813 485.367C248.613 476.054 282.88 457.545 310.32 440.849Z" stroke="#D29277" stroke-miterlimit="10"/>
<path d="M570.973 377.916C563.16 376.376 554.973 376.692 546.933 377.009C516.693 378.211 485.653 379.192 456.853 371.799C443.933 368.476 431.6 363.498 418.187 361.747C415.947 361.452 413.547 361.262 411.467 362C409.427 362.718 408.013 364.215 406.88 365.734C397.2 378.665 402.787 396.193 415.813 407.131C428.827 418.068 447.613 423.51 466.187 426.642C484.76 429.775 503.88 430.977 522.08 435.259C560 444.182 590.867 465.613 620.093 486.717C629.36 493.414 638.693 500.186 649.52 505.216C658.16 509.224 668.507 512.093 678.12 509.868C687.733 507.642 695.04 498.53 690.413 491.495C687.04 486.369 679.32 484.355 672.76 481.824C657.76 476.023 646.307 465.518 638.307 453.927C620.867 428.678 613.347 386.269 570.973 377.916Z" stroke="#D29277" stroke-miterlimit="10"/>
<path d="M730.12 426.537C728.467 425.63 726.813 424.723 725.16 423.816C721.467 421.791 717.773 419.766 714.213 417.603C701.827 410.084 690.787 400.834 676.533 395.771C675.213 395.307 673.44 394.949 672.52 395.835C671.813 396.52 672.12 397.543 672.547 398.366C674.027 401.203 676.507 403.618 678.947 406.002C685.787 412.668 692.653 419.365 700.747 425.092C707.987 430.228 715.787 433.719 724.64 436.757C733.28 439.72 740.053 443.454 750.093 443.464C751.56 443.464 753.227 443.317 754.093 442.378C757.053 439.182 746.307 435.428 743.747 434.025C739.227 431.536 734.667 429.036 730.12 426.537Z" stroke="#D29277" stroke-miterlimit="10"/>
<path d="M818.533 471.603C819.08 473.027 820.053 474.325 820.813 475.696C823.373 480.336 823.267 485.852 820.52 490.419C819.48 492.159 818.04 494.089 818.96 495.872C819.613 497.137 821.373 497.907 823.107 497.981C824.84 498.055 826.533 497.538 828.04 496.863C833.72 494.3 837.28 489.385 838.56 484.312C839.84 479.218 838.8 473.418 834.107 469.8C829.84 466.52 815 462.375 818.533 471.603Z" stroke="#D29277" stroke-miterlimit="10"/>
<path d="M1002.63 459.095C1011.23 450.995 1023.07 445.226 1030.95 436.672C1034.17 433.171 1036.57 428.066 1033.07 424.733C1029.19 421.052 1021.76 422.645 1016.17 424.47C974.68 438.043 931.253 447.915 886.987 453.864C881.053 454.665 874.56 455.636 870.787 459.327C864.133 465.845 870.28 475.358 870.24 483.743C870.2 492.539 862.867 500.386 854.08 505.775C845.293 511.165 834.96 514.719 825.547 519.402C822.813 520.762 819.933 522.482 819.4 525.002C818.733 528.082 822.08 530.951 825.84 531.932C829.587 532.912 833.653 532.533 837.6 532.427C844.507 532.237 851.44 532.923 858.08 534.431C869.707 537.078 882.453 542.215 893.08 537.627C897.32 535.802 900.36 532.68 904.067 530.234C914.987 523.009 930.467 522.281 944.053 523.378C957.933 524.496 961.973 524.665 969.92 514.287C983.253 496.821 985.72 475.01 1002.63 459.095Z" stroke="#D29277" stroke-miterlimit="10"/>
<path d="M864.053 521.49C862.013 521.29 859.8 521.026 858.347 519.866C854.56 516.839 859.427 511.966 864.12 509.899C869.733 507.421 875.773 505.501 880.933 502.453C886.08 499.416 890.4 494.923 890.573 489.839C890.813 482.73 883.24 475.126 888.187 469.178C890.467 466.436 894.707 465.233 898.653 464.2C926.467 456.975 954.267 449.75 982.08 442.515C987.173 441.197 994.84 440.986 995.733 445.173C996.253 447.652 993.64 449.761 991.387 451.522C982.013 458.831 975.027 468.039 971.28 478.016C967.6 487.835 965.667 499.859 954.12 504.499C945.12 508.117 934.053 505.396 924.28 507.421C913.96 509.562 906.787 516.27 897.32 519.729C886.04 523.863 876.04 522.671 864.053 521.49Z" stroke="#D29277" stroke-miterlimit="10"/>
<path d="M925.32 467.311C921.187 468.408 916.987 469.536 913.427 471.519C909.867 473.502 906.96 476.508 906.573 479.946C906.28 482.646 907.52 485.431 906.547 488.025C905.213 491.611 899.867 494.279 900.68 497.971C901.24 500.481 904.733 502.063 907.947 501.936C911.16 501.81 914.067 500.386 916.573 498.793C919.08 497.19 921.387 495.355 924.227 494.153C930.64 491.432 939.253 492.128 944.413 488.067C946.893 486.116 948.08 483.384 949.44 480.832C951.693 476.592 954.613 472.574 958.107 468.893C960.013 466.889 962.213 464.411 961.013 462.09C957.32 454.982 930.627 465.908 925.32 467.311Z" stroke="#D29277" stroke-miterlimit="10"/>
<path d="M271.013 374.277C265.12 385.204 264.613 397.448 260.4 408.85C255.08 423.288 243.653 436.261 228.387 445.226C224.56 447.472 220.347 449.603 218.053 452.904C215.76 456.205 216.333 461.141 220.6 462.818C224.36 464.295 228.813 462.628 232.44 460.962C255.133 450.531 276.667 438.528 296.72 425.145C300.427 422.666 304.187 420.04 306.267 416.57C308.053 413.585 308.44 410.21 308.787 406.92C309.947 396.267 311.107 385.615 312.267 374.963C313.12 367.084 317.933 347.013 299.947 348.986C287.64 350.325 275.4 366.135 271.013 374.277Z" stroke="#D29277" stroke-miterlimit="10"/>
<path d="M279.387 408.449C278.84 410.495 278.587 413.121 280.867 414.186C281.973 414.703 283.387 414.64 284.613 414.323C290.133 412.868 291.827 407.468 292.653 402.912C293.067 400.686 293.467 398.472 293.88 396.246C294.6 392.344 296.933 376.386 286.907 383.896C281.347 388.062 280.947 402.585 279.387 408.449Z" stroke="#D29277" stroke-miterlimit="10"/>
<path d="M134.227 467.817C129.96 468.049 125.36 468.397 122.16 470.644C120.827 471.572 119.787 472.922 120.013 474.314C120.267 475.917 122.053 477.077 123.853 477.826C127.947 479.545 132.68 480.041 137.32 480.252C149.493 480.79 161.8 479.503 173.373 476.455C184.8 473.449 186.96 464.949 172.72 465.676C159.88 466.33 147.053 467.1 134.227 467.817Z" stroke="#D29277" stroke-miterlimit="10"/>
<path d="M213.253 416.559C215.547 411.634 216.533 406.392 218.28 401.319C220.693 394.337 224.6 387.682 229.787 381.712C234.027 376.84 239.347 370.849 235.867 365.607C233.373 361.842 227.32 360.555 221.947 360.577C213.747 360.619 205.84 362.781 198.013 364.711C167.133 372.336 134.533 376.724 102.373 373.961C93.1466 373.17 83.8 371.798 74.68 373.18C65.5733 374.551 56.5333 379.508 54.92 386.733C53.16 394.653 60.44 401.783 65.4266 408.797C69.8133 414.946 72.64 421.77 74.04 428.741C75.5466 436.187 76.0666 444.793 83.56 449.455C89.4267 453.104 97.7733 452.978 105 451.501C119.547 448.548 132.267 441.018 147.08 439.045C174.507 435.386 201.213 442.42 213.253 416.559Z" stroke="#D29277" stroke-miterlimit="10"/>
<path d="M189.36 398.704C193.667 394.675 198.16 388.948 194.413 384.592C190.8 380.405 182.787 381.333 176.667 382.83C159.12 387.123 140.933 392.281 122.84 389.802C114.653 388.684 106.613 386.005 98.3467 386.68C90.08 387.355 81.6133 393.43 84.12 399.684C85.2133 402.416 88.08 404.431 89.9866 406.867C93.1333 410.864 93.56 415.779 94.7067 420.398C95.8533 425.018 98.24 429.954 103.52 432.127C111 435.196 119.747 431.315 127.307 428.361C136.16 424.891 145.773 422.613 155.573 421.654C160.773 421.147 166.067 420.989 171.08 419.776C185.547 416.296 181.053 406.477 189.36 398.704Z" stroke="#D29277" stroke-miterlimit="10"/>
<path d="M120.733 401.361C117.667 402.163 114.267 403.492 113.56 405.981C112.747 408.86 116.16 411.497 119.707 412.383C122.28 413.026 125.067 413.111 127.693 412.604C130.173 412.13 132.453 411.17 134.867 410.516C143.053 408.28 152.68 409.556 160.013 405.896C162.293 404.757 164.293 403.049 164.733 400.95C166.48 392.639 153.173 398.239 148.667 398.735C139.12 399.779 130.213 398.904 120.733 401.361Z" stroke="#D29277" stroke-miterlimit="10"/>
<path d="M602.187 427.876C595.947 414.661 586.24 400.718 569.253 396.404C559.307 393.884 548.56 395.16 538.12 395.529C511.76 396.478 485.72 391.521 459.907 387.165C455.827 386.48 451.16 385.889 447.8 387.861C444.267 389.939 443.8 394.232 445.76 397.353C447.72 400.475 451.507 402.616 455.387 404.272C471.76 411.286 491.133 411.792 509.387 414.714C539.213 419.491 567.213 431.209 588.973 448.031C593.107 451.227 622.707 474.789 623.227 463.841C623.427 459.569 614.173 451.796 611.867 447.873C608.067 441.397 605.333 434.552 602.187 427.876Z" stroke="#D29277" stroke-miterlimit="10"/>
<path d="M680.08 459.823C693.067 465.655 707.707 471.582 713.213 482.562C716.187 488.478 716.96 496.188 724.24 498.92C729.4 500.861 735.48 499.205 740.8 497.549C749.2 494.923 757.6 492.296 766 489.67C767.56 489.185 769.16 488.679 770.44 487.814C775.2 484.618 773.16 478.016 768.2 475.01C763.24 472.004 756.653 471.477 750.48 470.718C719.827 466.942 691.027 454.349 670.68 435.828C662.293 428.193 648.413 427.929 654.307 440.343C658.547 449.234 670.093 455.34 680.08 459.823Z" stroke="#D29277" stroke-miterlimit="10"/>
<path d="M-62.16 -26.5043C-64.1067 56.236 -66.0533 138.966 -68.0133 221.706C-68.12 226.02 -68.1733 230.502 -65.8933 234.415C-63.6133 238.328 -58.2533 241.481 -52.92 240.574C-47.0933 239.583 -44.0533 234.573 -42.24 230.08C-33.8133 209.229 -33.4667 186.922 -28.2667 165.417C-18.48 125.033 9.12 87.4864 48.6667 60.7922C66.5733 48.7055 87.4666 38.1797 98.28 21.6317" stroke="#D29277" stroke-miterlimit="10"/>
<path d="M-24.4667 -1.75079C-27.5734 21.6105 -30.6934 44.9719 -33.8 68.3332C-34.28 71.898 -34.7467 75.5578 -33.5733 79.0172C-32.4 82.4766 -29.2267 85.7566 -24.7867 86.5054C-20.1333 87.2965 -15.3733 85.1344 -12.3733 82.2129C-9.37335 79.2914 -7.69334 75.6949 -5.61334 72.3094C-0.0533386 63.3023 8.50666 55.698 15.4267 47.2922C22.3467 38.8863 27.7466 28.9617 25.7466 19.0582" stroke="#D29277" stroke-miterlimit="10"/>
<path d="M-45.72 277.604C-46.9467 275.769 -48.4267 273.85 -50.84 273.027C-57.44 270.791 -62.5467 277.952 -64.0534 283.511C-72.1734 313.421 -79.44 343.48 -85.84 373.655C-92.4534 404.821 -98.1467 436.387 -95.6 467.923C-93.0534 499.458 -81.68 531.278 -57.16 556.221C-27.36 586.543 18.48 603.861 63.3866 618.479C90.7733 627.391 118.467 635.702 146.147 644.003C170.627 651.343 195.44 658.758 221.467 660.899C249.827 663.24 278.427 659.211 306.013 653.537C331.787 648.232 357.96 641.06 377.293 626.579C402.067 608.017 412.853 579.466 439.787 562.897C456.493 552.625 477.76 548.047 495.2 538.566C501.8 534.98 508.373 529.632 507.453 523.336C506.627 517.609 499.92 513.654 493.48 510.964C455.56 495.134 408.893 499.047 368.587 510.616C328.28 522.176 291.747 540.686 252.373 554.101C203.24 570.85 148.093 579.509 95.8133 570.502C64.4399 565.091 35.28 553.584 7.50664 540.823C-12.88 531.447 -35 518.4 -35.8534 499.764C-36.3734 488.531 -28.76 478.174 -25.4534 467.237C-19.2667 446.808 -28.2534 425.682 -35.5867 405.485C-43.6534 383.242 -43.68 365.47 -37.2667 343.195C-30.8267 320.825 -31.8934 298.245 -45.72 277.604Z" stroke="#D29277" stroke-miterlimit="10"/>
<path d="M241.213 637.843C282.413 636.683 324.173 624.175 351.36 599.664C370.2 582.683 382.427 560.05 407.427 549.102C416.493 545.136 427.04 542.827 434.187 536.889C441.333 530.961 442.267 519.296 432.813 515.953C428.413 514.403 423.32 515.173 418.627 516.069C361.347 527.017 309.893 551.433 255.56 569.479C201.227 587.524 139.28 599.189 83.8133 583.464C76.6667 581.439 69.48 578.939 61.88 579.034C54.2933 579.129 46.0933 582.778 44.84 588.705C42.4133 600.202 116.52 615.938 128.347 619.049C165.8 628.921 200.987 638.982 241.213 637.843Z" stroke="#D29277" stroke-miterlimit="10"/>
<path d="M270.413 617.309C283.32 614.619 295.853 610.748 307.64 605.823C322.28 599.695 336.84 590.984 341.107 578.317C343.04 572.59 342.28 563.994 334.92 560.682C329.467 558.225 320.867 560.862 315.773 562.781C276.12 577.737 237.893 592.661 194.36 599.084C187.6 600.075 180.747 600.971 174.44 603.134C172.627 603.756 170.773 604.547 169.827 605.918C160.293 619.597 224.733 621.96 232.893 621.738C245.547 621.369 258.16 619.871 270.413 617.309Z" stroke="#D29277" stroke-miterlimit="10"/>
<path d="M256.44 598.778C254.067 599.463 251.613 600.149 249.747 601.151C247.88 602.153 246.733 603.566 247.653 604.61C249.067 606.234 254.04 606.087 258.027 605.665C272.333 604.146 287.667 601.393 297.413 595.645C300.107 594.063 302.32 592.218 302.787 590.34C305.747 578.412 263.733 596.647 256.44 598.778Z" stroke="#D29277" stroke-miterlimit="10"/>
<path d="M752.24 560.123C741.067 563.33 729.893 566.525 718.72 569.732C716.533 570.364 714.147 571.124 713.093 572.769C712.04 574.446 712.813 576.577 714.48 577.905C716.147 579.234 718.507 579.867 720.853 580.131C733.627 581.565 744.573 573.497 756.493 569.605C763.667 567.264 771.467 566.42 779.16 565.587C784.827 564.975 791.76 564.226 795.36 560.25C798.973 556.253 796.04 553.985 790.667 553.363C778.12 551.929 763.76 556.822 752.24 560.123Z" stroke="#D29277" stroke-miterlimit="10"/>
<path d="M552.747 533.145C550.88 532.354 548.973 531.584 546.893 531.267C544.813 530.951 542.533 531.141 540.84 532.143C538.253 533.661 537.733 536.762 539.067 539.082C540.4 541.403 543.173 543.037 546.133 544.061C549.08 545.094 552.267 545.611 555.347 546.391C560.52 547.689 565.413 549.703 570.733 550.526C571.773 550.684 572.893 550.8 573.88 550.484C575.813 549.872 576.44 547.826 575.76 546.265C573.08 540.116 559.387 535.95 552.747 533.145Z" stroke="#D29277" stroke-miterlimit="10"/>
<path d="M507.04 -1.02307C536.547 39.5191 533.733 89.4797 550.307 134.378C552.213 139.535 556 145.631 562.787 145.642C567.12 145.652 570.853 142.857 572.373 139.651C573.907 136.445 573.667 132.891 573.24 129.473C570.867 110.658 563.08 92.4961 560.267 73.7332C556.667 49.8129 560.56 23.5933 543.693 3.53319" stroke="#D29277" stroke-miterlimit="10"/>
<path d="M926.72 908.223C920.067 912.357 913.427 916.492 906.773 920.637C891.24 930.298 866.293 943.418 859.573 958.985C854.587 970.534 862.253 988.664 880.04 989.645C889.32 990.151 898.013 985.479 903.533 979.552C909.053 973.624 912.067 966.526 915.573 959.713C924.827 941.73 944.92 926.205 950.707 907.516C951.187 905.976 951.547 904.3 950.8 902.823C949.573 900.408 945.707 899.416 942.48 899.933C939.253 900.461 936.547 902.116 933.96 903.719C931.533 905.217 929.12 906.715 926.72 908.223Z" stroke="#D29277" stroke-miterlimit="10"/>
<path d="M2013.11 820.895C2013.71 819.281 2014.32 817.657 2014.96 816.054C2026.4 787.029 2043.28 759.386 2052.53 729.875C2061.79 700.365 2062.64 667.501 2043.24 641.25C2034.43 629.311 2021.16 618.975 2004.61 614.524C1977.35 607.194 1947.92 616.792 1921.71 626.221C1875.19 642.948 1828.65 659.686 1782.13 676.413C1754.17 686.464 1725.75 696.632 1695.35 700.123C1664.95 703.614 1631.77 699.564 1608.36 683.838C1575.92 662.038 1568.4 622.92 1535.01 602.047C1483.31 569.732 1395.61 595.972 1349.04 559.1C1314.48 531.731 1319.01 480.231 1277.2 460.16C1265.84 454.707 1252.25 452.419 1241.56 446.186C1234.23 441.914 1228.21 435.797 1219.52 433.645C1208.96 431.04 1197.77 435.027 1187.96 439.056C1122.12 466.119 1053.51 495.64 1027.11 554.091C1022.33 564.669 1018.77 576.039 1009.49 584.539C1003.93 589.634 996.627 593.367 990.973 598.387C982.427 605.971 978.213 615.895 973.24 625.261C960.32 649.55 941.133 671.404 921.467 692.666C878 739.663 831.4 784.856 781.947 827.993C755.133 851.386 727.32 874.325 705.413 900.724C683.507 927.123 667.6 957.625 667.627 989.202C667.653 1020.78 685.627 1053.35 719.373 1070.22C733.667 1077.36 750 1081.47 765.32 1087.12C780.747 1092.81 795.36 1100.12 808.307 1108.87C822.173 1118.23 825.733 1129.1 833.693 1141.91C862.213 1187.84 934.88 1176.15 999.533 1174.62C1303.45 1167.41 1607.08 1152.33 1909.76 1129.4C1918.91 1128.71 1928.24 1127.97 1936.59 1124.93C1961.07 1116.03 1968.33 1091.68 1971.75 1070.54C1978.49 1028.74 1986.75 987.567 1990.08 945.58C1993.44 903.667 1998.07 861.353 2013.11 820.895Z" stroke="#D29277" stroke-miterlimit="10"/>
<path d="M716.853 998.61C710.787 980.1 715.64 961.464 724.653 944.156C747.253 900.735 806.947 869.273 852.747 842.052C901.12 813.301 951.64 783.812 982.907 741.846C1012.73 701.831 1021.84 654.666 1036.19 609.63C1052.52 558.362 1084.47 493.298 1154.2 474.588C1178.16 468.165 1204.36 469.916 1229.23 473.576C1238.41 474.926 1247.79 476.613 1255.55 480.737C1268.73 487.74 1274.85 500.333 1280.73 512.009C1302.12 554.534 1336.57 599.231 1392.97 609.472C1429.33 616.075 1469.99 607.068 1503.16 620.578C1554.53 641.514 1561.64 705.544 1615.88 721.29C1643.6 729.337 1680.16 723.315 1698.56 741.572C1713.4 756.295 1705.59 779.372 1688.32 792.323C1671.05 805.275 1647.19 810.77 1624.44 816.349C1600.37 822.245 1576.53 828.689 1552.95 835.682C1533.68 841.387 1513.56 848.064 1501.35 861.152C1478.01 886.159 1493.24 921.67 1484.97 952.056C1477.4 979.91 1450.39 1001.78 1422.01 1019.33C1299.16 1095.31 1137.91 1117.26 983.933 1136.78C960.947 1139.7 936.96 1142.56 914.773 1137C870.56 1125.91 849.36 1089.03 816.72 1066.04C783.293 1042.48 729.693 1037.81 716.853 998.61Z" stroke="#D29277" stroke-miterlimit="10"/>
<path d="M747.48 983.243C742.547 960.915 762.893 940.37 783.16 924.349C849.933 871.541 930.72 829.934 990.84 772.337C1007.79 756.105 1023.11 738.492 1032.43 718.78C1042.11 698.33 1045.03 676.339 1051.36 655.087C1058.72 630.366 1070.69 606.667 1083.65 583.432C1100.99 552.361 1126.19 507.115 1173.88 500.639C1194.53 497.834 1218.43 505.596 1225.69 521.142C1229.92 530.181 1228.16 540.2 1226.13 549.703C1220.01 578.454 1211.95 606.941 1202 635.017C1196.16 651.491 1189.61 668.239 1190.92 685.315C1192.09 700.682 1199.83 714.519 1205.59 728.989C1211.19 743.059 1212.81 758.078 1211.85 772.812C1210.27 797.038 1201.23 822.762 1214.6 844.594C1225.37 862.186 1249.15 873.112 1273.47 876.572C1297.79 880.021 1322.81 877.015 1346.99 872.954C1371.16 868.894 1395.25 863.778 1419.95 862.998C1428.25 862.734 1437.03 863.061 1444.13 866.478C1455.47 871.921 1459.27 883.417 1460.67 893.848C1464.33 921.122 1458.24 949.177 1443.28 973.92C1438.28 982.199 1432.11 990.288 1423.05 996.036C1412.41 1002.79 1399.03 1005.53 1385.81 1007.21C1370.37 1009.17 1363.59 1013 1350.45 1019.8C1326 1032.45 1299.72 1042.81 1272.65 1051.47C1218.91 1068.68 1162.2 1079.35 1105.53 1088.55C1072.56 1093.91 1039.49 1098.91 1006.35 1103.54C991.667 1105.59 976.68 1107.57 961.92 1105.95C937.693 1103.27 916.987 1091.3 897.4 1079.7C868.227 1062.44 839.653 1042.84 808.107 1028.64C787.013 1019.12 747.48 1007.48 747.48 983.243Z" stroke="#D29277" stroke-miterlimit="10"/>
<path d="M862.693 1026.86C857.653 1024.93 852.6 1022.99 847.56 1021.06C827.853 1013.51 806.547 1004.65 798.24 988.622C792.053 976.672 794.627 962.708 801.947 951.159C809.267 939.621 820.907 930.15 833.147 921.607C892.747 879.957 971.653 854.423 1016.89 802.68C1084.49 725.372 1055.31 603.809 1151.81 540.327C1160.03 534.916 1171.88 530.297 1180.91 534.821C1185.95 537.353 1188.47 542.088 1189.83 546.676C1195.61 566.156 1185.95 586.164 1177.35 604.99C1166.24 629.279 1156.55 654.697 1158.64 680.463C1160.76 706.63 1174.92 731.489 1176.97 757.666C1180.75 805.644 1143.81 843.687 1118.08 884.261C1093.11 923.643 1082.19 967.518 1057.35 1006.94C1045.13 1026.33 1028.13 1045.43 1002.75 1053.55C966.92 1065 926.853 1051.45 892.08 1038.12C882.28 1034.37 872.48 1030.62 862.693 1026.86Z" stroke="#D29277" stroke-miterlimit="10"/>
<path d="M1238.76 796.31C1242.45 777.125 1251.31 757.846 1246.55 738.809C1241.57 718.896 1222.15 701.884 1221.65 681.592C1221.33 668.166 1229.41 655.646 1234.39 642.8C1242.77 621.126 1242.32 598.05 1245.03 575.49C1245.64 570.417 1246.48 565.207 1249.69 560.788C1252.91 556.379 1259.09 552.93 1265.47 553.605C1275.73 554.692 1279.77 564.374 1283.35 572.062C1300.01 607.953 1350.51 628.552 1398.81 629.849C1422.81 630.492 1447.57 627.339 1470.4 633.245C1499.71 640.828 1520.08 661.996 1533.79 683.849C1543.89 699.954 1552.11 717.778 1569.75 729.127C1586.08 739.631 1608.29 742.869 1629.29 741.835C1641.27 741.245 1654.44 739.621 1664.32 745.021C1676.2 751.518 1677.24 766.009 1669.93 775.87C1662.63 785.732 1649.35 791.796 1636.11 796.363C1593.73 810.981 1545.64 815.031 1506.31 834.247C1495.01 839.763 1483.75 847.019 1470.41 849.118C1456.65 851.28 1442.72 846.197 1429.68 843.223C1418.76 840.734 1407.61 838.223 1396.24 838.508C1380.13 838.92 1365.23 844.857 1349.88 848.749C1323.25 855.51 1288.16 857.018 1261.81 848.338C1237.79 840.396 1235.37 813.934 1238.76 796.31Z" stroke="#D29277" stroke-miterlimit="10"/>
<path d="M1432.99 820.716C1414.17 817.383 1394.91 813.565 1375.84 815.843C1356.29 818.174 1338.81 826.727 1319.71 830.756C1300.6 834.796 1276.48 832.581 1266.67 818.996C1257.11 805.75 1265.75 789.402 1271.51 774.847C1278 758.468 1280.37 739.99 1270.69 724.634C1264.01 714.023 1251.84 705.248 1249.6 693.52C1247.52 682.583 1254.64 672.057 1258.57 661.437C1261.85 652.567 1262.93 643.201 1261.75 634.015C1260.76 626.389 1259 617.14 1266.64 612.436C1273.37 608.28 1283.77 610.801 1289.59 615.748C1295.4 620.694 1298.08 627.381 1301.63 633.53C1312.01 651.491 1331.41 666.077 1354.61 673.365C1365.84 676.898 1377.84 678.765 1388.95 682.541C1414.77 691.348 1434.27 710.923 1439.01 732.85C1442.11 747.141 1439.88 763.288 1451.36 774.594C1458.16 781.302 1468.76 785.025 1475.72 791.627C1482.92 798.451 1482.57 810.78 1474.45 817.182C1464.25 825.24 1445.4 822.92 1432.99 820.716Z" stroke="#D29277" stroke-miterlimit="10"/>
<path d="M1604.99 756.749C1616.92 756.211 1638.53 753.279 1638.81 767.855C1638.93 774.573 1632.87 780.543 1625.57 783.981C1618.28 787.419 1609.8 788.854 1601.63 790.636C1587.32 793.768 1573.44 798.124 1560.32 803.619C1550.84 807.585 1541.57 812.204 1531.09 814.018C1520.63 815.832 1508.35 814.198 1501.76 807.511C1494.29 799.938 1496.47 788.917 1491.68 780.089C1487.52 772.432 1478.6 767.211 1471.15 761.326C1452.8 746.845 1464.69 730.593 1456.72 713.148C1449.95 698.33 1437.05 685.294 1420.16 676.877C1403.69 668.682 1384.33 664.959 1366.91 658.114C1360.19 655.478 1352.81 649.35 1357.29 644.593C1361.24 640.406 1369.44 642.695 1375.67 644.435C1395.47 649.951 1417.4 645.3 1438.23 647.357C1459.52 649.455 1479.48 658.958 1491.8 672.859C1504.81 687.54 1509.08 706.039 1520.72 721.427C1537.87 744.114 1571.63 758.268 1604.99 756.749Z" stroke="#D29277" stroke-miterlimit="10"/>
<path d="M1418.09 728.367C1416.79 717.884 1409.64 707.938 1398.92 701.684C1374.87 687.656 1337.08 692.74 1317.08 675.169C1307.6 666.837 1303.77 654.486 1291.83 648.454C1289.44 647.251 1286.13 646.407 1283.92 647.81C1282.77 648.538 1282.24 649.709 1281.76 650.805C1275.2 665.951 1268.67 682.731 1276.31 697.56C1280.69 706.061 1289.25 712.758 1294.85 720.805C1306.97 738.207 1303.92 759.734 1297.05 778.845C1294.76 785.247 1292.09 792.197 1295.25 798.367C1298.16 804.062 1305.61 807.69 1313.24 808.819C1330.35 811.339 1346.67 805.328 1363.51 804.104C1383.04 802.68 1402.71 804.284 1422.16 805.76C1430.21 806.372 1440.36 806.077 1443.73 800.265C1445.87 796.595 1444.05 792.155 1440.93 788.948C1437.83 785.742 1433.57 783.369 1429.93 780.532C1410.05 764.975 1420.47 747.436 1418.09 728.367Z" stroke="#D29277" stroke-miterlimit="10"/>
<path d="M1393.84 752.435C1394.96 742.331 1396.57 731.109 1388.87 722.988C1374.63 707.97 1340.4 715.089 1325.36 700.566C1321 696.347 1317.47 690.061 1310.59 690.114C1303.25 690.166 1299.92 698.087 1302.59 703.487C1305.27 708.887 1311.35 712.726 1315.47 717.525C1321.65 724.729 1323.17 733.883 1322.41 742.574C1321.65 751.264 1318.8 759.744 1316.97 768.34C1315.57 774.889 1315.4 782.768 1322.03 786.839C1327.45 790.182 1335.11 789.465 1341.95 788.938C1356.97 787.788 1372.2 788.389 1387.01 790.71C1392.09 791.511 1397.71 792.439 1402.16 790.372C1411.73 785.921 1400.68 779.509 1397.89 775.438C1393.08 768.424 1392.97 760.219 1393.84 752.435Z" stroke="#D29277" stroke-miterlimit="10"/>
<path d="M1368.99 735.645C1366.13 729.664 1358.91 724.475 1350.85 724.971C1349.27 725.066 1347.63 725.404 1346.43 726.237C1343.76 728.072 1344.17 731.352 1344.47 734.136C1345.16 740.612 1344.03 747.193 1341.17 753.289C1339.69 756.453 1337.73 759.533 1337.17 762.887C1336.63 766.241 1337.87 770.048 1341.48 771.852C1349.79 775.976 1364.97 772.738 1369.17 766.093C1373.69 758.953 1372.44 742.859 1368.99 735.645Z" stroke="#D29277" stroke-miterlimit="10"/>
<path d="M1485.41 694.86C1479.57 682.53 1470.65 670.475 1456.55 663.493C1453.17 661.827 1449.32 660.435 1445.35 660.709C1441.37 660.983 1437.43 663.42 1437.33 666.562C1437.27 668.978 1439.33 671.077 1441.41 672.848C1450.93 680.938 1463.27 687.435 1469.09 697.486C1473.83 705.649 1473.55 714.973 1474.23 723.927C1474.91 732.881 1477.05 742.489 1485.17 748.765C1490.68 753.015 1498.35 755.167 1506 755.726C1528.73 757.382 1522.51 739.02 1510.35 731.964C1493.31 722.06 1492.83 710.511 1485.41 694.86Z" stroke="#D29277" stroke-miterlimit="10"/>
<path d="M1516.84 765.65C1513.4 765.84 1509.44 766.283 1507.65 768.614C1506.08 770.671 1506.96 773.402 1508.68 775.385C1510.39 777.378 1512.81 778.918 1514.65 780.827C1519.56 785.911 1520.4 793.547 1527.28 796.922C1532.15 799.305 1538.55 798.62 1543.76 796.753C1548.97 794.886 1553.49 791.986 1558.55 789.876C1569.55 785.289 1582.44 784.666 1594.31 781.724C1599.67 780.395 1605.76 777.431 1605.24 773.001C1604.83 769.521 1600.19 767.211 1595.79 766.905C1582.16 765.935 1570.03 767.823 1555.99 765.756C1542.83 763.826 1530.15 764.912 1516.84 765.65Z" stroke="#D29277" stroke-miterlimit="10"/>
<path d="M1099.05 635.618C1082.41 680.579 1085.83 729.696 1062.88 772.896C1043.57 809.251 1007.13 838.255 967.987 862.682C928.84 887.108 886.173 907.949 848.453 933.725C841.133 938.725 833.84 944.082 829.533 950.927C817.227 970.492 834.52 995.013 858.733 1005.53C872.307 1011.42 888.907 1014.27 903.413 1009.99C926.24 1003.25 935.853 982.505 945.16 964.691C967.013 922.883 1001.73 885.326 1045.48 856.185C1081.43 832.233 1125.57 811.582 1141.49 776.609C1158.29 739.716 1137.99 699.216 1138.43 660.013C1138.64 640.617 1144.08 621.274 1154.28 603.64C1158.76 595.888 1164.25 588.146 1164.73 579.635C1165.04 574.277 1160.77 561.779 1151.51 561.99C1143.97 562.159 1133.65 578.053 1130.08 582.367C1116.53 598.778 1106.01 616.781 1099.05 635.618Z" stroke="#D29277" stroke-miterlimit="10"/>
<path d="M1097.43 746.814C1093.91 758.647 1086.64 769.627 1083.01 781.439C1081.43 786.639 1081.79 793.705 1088.2 795.393C1094.03 796.932 1099.49 792.513 1102.81 788.421C1120.41 766.684 1126.87 739.663 1121.48 714.266C1119.67 705.712 1115.72 690.377 1103.96 701.051C1095.51 708.729 1100.51 736.457 1097.43 746.814Z" stroke="#D29277" stroke-miterlimit="10"/>
<path d="M951.133 984.287C946.573 993.547 942.693 1003.83 946.64 1013.27C952.587 1027.49 975.507 1034.03 993.56 1029.52C1011.61 1025.02 1024.67 1012.2 1032.08 998.42C1039.48 984.635 1042.25 969.627 1046.6 955.051C1055.49 925.225 1071.27 896.685 1092.92 871.267C1097.75 865.593 1119.16 837.38 1094.83 841.335C1081.25 843.539 1061.68 863.051 1051.8 870.55C1024.33 891.369 999.373 914.435 979.28 940.043C968.253 954.091 958.733 968.878 951.133 984.287Z" stroke="#D29277" stroke-miterlimit="10"/>
<path d="M980.733 972.127C977.053 978.613 973.627 985.616 974.973 992.651C976.32 999.675 984.267 1006.39 993.16 1005.37C999.213 1004.67 1003.96 1000.66 1006.35 996.205C1008.73 991.754 1009.24 986.829 1010.04 982.03C1012.09 969.806 1016.29 957.825 1022.49 946.508C1026.67 938.872 1033.79 917.135 1012.99 928.062C998.44 935.708 987.68 959.882 980.733 972.127Z" stroke="#D29277" stroke-miterlimit="10"/>
<path d="M822.427 819.039C814.733 824.639 806.2 831.315 806.853 839.573C812.2 842.579 819.627 840.175 825.053 837.285C834.413 832.296 842.493 826 850.533 819.724C900.813 780.511 953.08 739.484 981.32 687.308C986.547 677.647 990.84 666.816 994.227 656.606C995.013 654.233 995.707 651.723 994.853 649.36C994 647.009 991.067 644.931 988.027 645.405C985.627 645.775 983.987 647.504 982.707 649.16C978.68 654.339 975.76 659.992 972.587 665.529C955.48 695.366 929.107 721.132 904.48 747.162C880 773.044 852.52 797.154 822.427 819.039Z" stroke="#D29277" stroke-miterlimit="10"/>
<path d="M1136.47 898.14C1139.92 881.001 1142.93 867.038 1159.21 854.255C1163.11 851.196 1167.91 848.433 1173.4 848.254C1183.96 847.905 1190.81 856.607 1195.8 863.968C1202.09 873.25 1209.28 882.394 1219.48 889.175C1235.25 899.669 1256.83 903.424 1277.43 902.739C1303.2 901.884 1330.65 895.725 1354.59 888.384C1364.84 885.241 1375.03 881.613 1385.93 880.474C1398.77 879.135 1413.93 882.098 1420.99 891.443C1428.23 901.041 1423.8 913.264 1419.21 923.843C1415.81 931.658 1412.41 939.484 1409.01 947.299C1405.81 954.65 1402.51 962.16 1396.43 968.277C1387.87 976.883 1374.8 981.777 1362.16 986.249C1268.69 1019.24 1171.41 1044.87 1074.31 1070.46C1064.51 1073.04 1051.97 1075.07 1045.31 1068.83C1032.83 1057.12 1055.35 1044.96 1063.83 1037.51C1077.51 1025.46 1087.48 1009.92 1096.64 995.52C1116.11 964.934 1129.65 931.964 1136.47 898.14Z" stroke="#D29277" stroke-miterlimit="10"/>
<path d="M1151.11 906.768C1151.28 899.068 1151.72 890.093 1159.64 885.61C1167.49 881.16 1178.88 883.818 1186.13 888.859C1193.39 893.9 1198.03 900.851 1204.4 906.588C1221.15 921.702 1248.64 927.102 1273.93 925.172C1299.23 923.242 1322.97 914.984 1346.03 906.546C1354.48 903.456 1363.15 900.271 1372.43 899.722C1381.71 899.174 1391.91 901.842 1396.73 908.139C1404.33 918.053 1395.56 930.688 1385.85 939.379C1344.47 976.43 1284.04 995.783 1225.89 1013.91C1202.84 1021.11 1179.48 1028.44 1154.97 1031.91C1144.4 1033.4 1129.19 1036.17 1118.53 1033.98C1103.55 1030.9 1105.76 1029.43 1110.05 1019.51C1118.11 1000.96 1132.87 984.603 1139.92 965.26C1146.84 946.255 1150.67 926.543 1151.11 906.768Z" stroke="#D29277" stroke-miterlimit="10"/>
<path d="M1170.29 942.964C1172.03 939.22 1174.64 935.518 1178.91 933.398C1186.41 929.665 1196.48 932.006 1203.76 936.003C1211.04 940.001 1216.96 945.506 1224.75 948.86C1241.05 955.884 1261.39 951.898 1278.23 945.717C1295.07 939.547 1311.29 931.215 1329.75 929.654C1337.72 928.979 1347.65 930.698 1349.95 936.773C1352.52 943.566 1343.6 949.44 1335.6 952.646C1293.68 969.479 1243.91 973.814 1206.24 996.068C1195.07 1002.67 1165.32 1023.18 1158.53 1001.77C1156.35 994.897 1163.69 982.684 1164.75 975.48C1166.35 964.586 1165.43 953.448 1170.29 942.964Z" stroke="#D29277" stroke-miterlimit="10"/>
<path d="M1217.51 972.939C1209.91 977.463 1199.68 982.399 1190.31 983.981C1188.37 984.308 1186.08 983.823 1185.15 982.452C1184.6 981.661 1184.59 980.722 1184.6 979.826C1184.65 975.143 1183.79 961.748 1189.31 958.806C1192.29 957.213 1198.44 959.07 1201.53 959.513C1206.89 960.282 1212.27 961.052 1217.63 961.833C1218.92 962.023 1220.27 962.223 1221.33 962.835C1225.53 965.25 1221.67 970.471 1217.51 972.939Z" stroke="#D29277" stroke-miterlimit="10"/>
<path d="M1761.71 709.805C1749.36 713.749 1735.68 718.495 1730.69 728.262C1726.56 736.372 1729.75 745.506 1730.09 754.249C1730.93 775.427 1714.2 795.15 1692.52 807.595C1670.84 820.03 1644.65 826.4 1618.84 832.064C1593.03 837.728 1566.67 843.033 1543.59 853.78C1533.71 858.379 1524.29 864.158 1518.64 872.058C1511.16 882.531 1511.25 895.177 1510.15 907.168C1507.61 934.59 1497.69 961.569 1481.21 985.785C1474.57 995.551 1466.85 1007.63 1474.55 1016.9C1478.09 1021.18 1484.23 1023.64 1490.23 1025.57C1521.13 1035.54 1555.31 1036.72 1588.68 1037.3C1657.37 1038.51 1726.13 1037.8 1794.77 1035.19C1828.88 1033.89 1863.31 1032.08 1895.99 1024.27C1912.17 1020.41 1928.33 1014.82 1939.72 1004.93C1952.88 993.505 1958.17 977.548 1958.67 962.096C1959.15 946.645 1955.31 931.352 1952.4 916.07C1938.43 842.505 1946.44 766.389 1975.6 695.661C1980.53 683.691 1986.15 671.34 1984.27 658.832C1977.01 610.611 1914.75 651.67 1888.51 662.797C1847.35 680.263 1805 695.957 1761.71 709.805Z" stroke="#D29277" stroke-miterlimit="10"/>
<path d="M1815.83 725.214C1805.81 729.622 1795.57 734.168 1788.12 741.044C1771.92 755.989 1772.33 778.254 1759.83 795.277C1752.07 805.844 1739.71 813.818 1726.75 820.473C1711.09 828.51 1694.15 834.996 1676.47 839.7C1639.99 849.424 1598.8 852.293 1569.45 871.995C1536.31 894.248 1527.85 931.373 1521.49 965.398C1519.56 975.723 1517.72 986.65 1522.83 996.268C1533.2 1015.78 1565.28 1020.04 1592.04 1020.56C1673.49 1022.15 1755.12 1015.34 1836.39 1020.02C1859.76 1021.37 1883.28 1023.66 1906.56 1021.51C1942.87 1018.15 1977.32 1003.57 2000.99 981.534C2024.65 959.502 2037.31 930.255 2035.65 901.378C2032.96 854.466 1994.79 812.521 1990.49 765.682C1988.73 746.434 1992.76 726.743 1987 707.991C1980.03 685.22 1954.37 666.668 1925.52 676.93C1887.84 690.356 1851.93 709.33 1815.83 725.214Z" stroke="#D29277" stroke-miterlimit="10"/>
<path d="M1843.04 745.01C1830.59 750.041 1818.31 756.179 1810.49 765.344C1796.89 781.302 1799.77 802.311 1795.01 821.169C1791.15 836.483 1782.04 850.753 1778.45 866.12C1768.87 907.232 1799.85 948.185 1796.69 989.908C1796.03 998.757 1793.99 1008.27 1799.45 1016C1802.51 1020.32 1807.61 1023.52 1813.09 1025.89C1830.81 1033.56 1852.49 1033.2 1872.16 1029.56C1922.24 1020.29 1965.25 989.93 1982.56 951.613C1996.21 921.396 1994.32 888.142 1987.72 856.48C1983.24 834.943 1976.71 813.723 1971.55 792.281C1968.8 780.869 1967.61 768.741 1959.31 758.837C1931.85 726.078 1882.41 729.095 1843.04 745.01Z" stroke="#D29277" stroke-miterlimit="10"/>
<path d="M1868.15 763.045C1847.45 768.656 1840.69 789.275 1841.53 806.562C1842.37 823.848 1847.37 842.126 1838.09 857.798C1829.41 872.459 1808.61 885.009 1813.49 900.724C1817.04 912.115 1833.32 918.896 1836.76 930.308C1838.93 937.522 1835.48 944.947 1834.27 952.298C1833.05 959.65 1835.43 968.667 1844.16 971.357C1853.76 974.299 1863.48 967.75 1870.47 961.759C1878.32 955.03 1886.16 948.301 1894.01 941.572C1901.85 934.843 1909.8 928.009 1915.08 919.867C1934.55 889.787 1915.27 852.715 1918.59 820.705C1920.96 797.913 1911.93 751.159 1868.15 763.045Z" stroke="#D29277" stroke-miterlimit="10"/>
<path d="M1868.83 863.705C1866.01 872.965 1861.11 882.077 1861.71 891.591C1862.09 897.877 1866.12 904.89 1873.89 906.251C1881.4 907.569 1888.39 903.097 1893.93 898.878C1904.84 890.578 1915.52 881.909 1923.44 871.71C1931.36 861.5 1936.4 849.551 1935.09 837.622C1933.71 824.924 1925.31 813.312 1915.27 803.345C1902.67 790.847 1877.79 781.544 1868.2 801.035C1859.05 819.619 1875 843.434 1868.83 863.705Z" stroke="#D29277" stroke-miterlimit="10"/>
<path d="M1750.81 878.639C1747.85 868.556 1742.92 857.334 1730.88 853.284C1713.91 847.578 1696.68 859.56 1680.27 866.204C1659.36 874.673 1633.73 874.958 1614.56 885.705C1595.21 896.548 1586.65 915.574 1579.2 933.377C1572.08 950.4 1564.95 967.412 1557.83 984.435C1555.92 988.991 1554 993.885 1555.65 998.494C1557.27 1003 1561.96 1006.33 1566.52 1009.3C1594.57 1027.61 1626.08 1042.61 1659.67 1053.64C1677.37 1059.45 1696.01 1064.22 1715.19 1064.41C1737.04 1064.63 1762.04 1057.87 1773.83 1042.28C1783.68 1029.26 1776.84 1020.23 1770.04 1007.62C1760.07 989.118 1760.75 972.127 1760.88 952.256C1761.03 927.482 1757.91 902.812 1750.81 878.639Z" stroke="#D29277" stroke-miterlimit="10"/>
<path d="M1717 968.593C1720.47 952.995 1725.8 937.375 1724.17 921.597C1722.95 909.647 1715.87 896.548 1701.44 892.856C1690.37 890.03 1678.44 893.552 1667.81 897.307C1653.87 902.232 1639.41 908.149 1631.55 918.506C1623.27 929.422 1623.85 943.207 1617.36 954.851C1609.55 968.836 1591.44 980.427 1593.25 995.657C1595 1010.38 1614.61 1019.23 1632.47 1023.6C1653.41 1028.71 1675.39 1031.18 1697.29 1030.89C1715.01 1030.66 1725.37 1026.55 1721.68 1013.43C1717.16 997.302 1713.11 986.122 1717 968.593Z" stroke="#D29277" stroke-miterlimit="10"/>
<path d="M1688.96 951.792C1690.29 947.088 1691.44 942.216 1690.44 937.459C1689.44 932.702 1685.88 928.009 1680.21 926.226C1669.88 922.967 1658.88 930.72 1655.12 938.999C1651.35 947.278 1651.56 956.549 1646.75 964.48C1644.07 968.91 1639.95 972.685 1636.84 976.936C1626.87 990.573 1643.12 1007.54 1662.33 1000.58C1679.6 994.317 1685.28 964.733 1688.96 951.792Z" stroke="#D29277" stroke-miterlimit="10"/>
<path d="M618.773 30.839C623.387 65.2851 628 99.7312 632.613 134.177C634.4 147.53 636.56 161.641 646.973 172.252C662.24 187.798 689.92 190.909 714.733 192.449C750.773 194.695 786.88 196.182 823.027 196.921C849.987 197.469 877.053 197.596 903.853 195.138C942.187 191.616 979.427 182.862 1017.47 177.725C1055.89 172.536 1094.95 171.06 1133.89 169.604C1191.12 167.453 1248.33 165.312 1305.56 163.16C1324.32 162.454 1343.45 161.778 1361.56 165.712C1379.67 169.646 1396.93 179.023 1403.49 192.945C1417.03 221.632 1384.59 253.083 1362.15 273.016C1334.83 297.274 1305.69 320.266 1274.95 341.824C1263.15 350.093 1250.87 358.393 1243.27 369.32C1235.67 380.246 1233.73 394.611 1242.85 404.789C1255.75 419.186 1282.49 418.743 1302.69 426.21C1323.91 434.046 1337.83 451.111 1344.07 468.956C1353.25 495.207 1342.49 517.63 1370.76 536.688C1400.21 556.548 1440.91 553.532 1476.88 557.793C1524.11 563.393 1568.25 583.875 1597.47 613.754C1617.13 633.867 1632.73 659.538 1663.15 667.775C1687.96 674.494 1715.07 667.195 1739.27 659.169C1843.57 624.554 1939.89 574.963 2022.13 513.527C2034 504.657 2045.96 495.081 2051.21 482.846C2056.51 470.486 2054.29 457.017 2052.19 444.066C2035.51 341.286 2030.47 237.326 2037.11 133.829C2041.08 72.0246 2045.69 1.99333 1991.55 -42.6832C1949.47 -77.4035 1883.99 -85.6512 1823.35 -89.2266C1494.72 -108.601 1153.39 -48.5051 840.693 -130.76C789.16 -144.313 735.467 -154.596 685.52 -132.754C652.16 -118.167 621.04 -96.061 612.427 -66.6879C607.867 -51.184 609.973 -34.9946 612.093 -19.1637C614.307 -2.49963 616.533 14.1644 618.773 30.839Z" stroke="#D29277" stroke-miterlimit="10"/>
<path d="M682.573 -104.172C671.88 -101.914 665.667 -93.2555 661.427 -85.1661C629.653 -24.4688 643.627 44.4023 658.107 109.097C660.507 119.812 663.013 130.76 669.8 140.221C689.333 167.389 735.227 172.673 774.693 174.118C834.88 176.333 895.52 176.681 954.987 169.077C994.947 163.962 1034.07 155.303 1073.93 149.797C1162.85 137.51 1253.91 141.096 1344.07 144.714C1375.85 145.99 1413.8 150.388 1427.11 173.253C1435.49 187.66 1430.59 204.388 1429.16 220.198C1427.73 236.018 1432.56 254.96 1450.97 261.236C1467.67 266.92 1487.92 258.261 1496.43 245.563C1504.93 232.864 1504.27 217.571 1501.27 203.396C1498.27 189.221 1493.16 175.173 1493.49 160.798C1494.48 118.346 1540.89 85.9781 1560.19 46.3429C1573.11 19.7859 1598.83 -5.0309 1582.52 -30.3856C1573.35 -44.6555 1554.16 -53.5571 1534.43 -57.1325C1514.69 -60.7079 1494.16 -59.7059 1473.96 -58.7672C1262.13 -49.0008 1047.33 -50.0239 840.773 -88.425C800.667 -95.8817 760.667 -104.773 719.547 -106.745C705.293 -107.483 696.387 -107.093 682.573 -104.172Z" stroke="#D29277" stroke-miterlimit="10"/>
<path d="M1617.56 -4.13439C1615.45 27.9176 1601.19 59.4105 1577.08 85.2187C1559.39 104.161 1535.79 121.363 1530.21 144.503C1526.96 157.982 1530.37 171.819 1532.59 185.425C1536.79 211.275 1536.17 238.992 1519.49 261.478C1502.83 283.964 1465.99 298.656 1435.71 288.383C1429.36 286.232 1423.32 283.057 1416.44 282.635C1404.57 281.897 1394.68 289.322 1386.52 296.188C1361.03 317.64 1335.55 339.082 1310.05 360.534C1298.87 369.942 1286.81 382.324 1292.39 394.464C1297.28 405.095 1312.92 409.24 1325.63 414.429C1346.49 422.94 1363.21 437.643 1371.73 454.961C1379.44 470.644 1381.25 489.122 1396.39 500.955C1416.63 516.786 1451.97 512.473 1474.49 498.698C1497.01 484.935 1510.71 464.295 1526.84 445.743C1551.01 417.952 1581.92 393.852 1617.4 375.131C1647.2 359.406 1679.95 347.551 1712.21 335.232C1728.85 328.873 1745.97 322.028 1757.49 310.595C1771.96 296.241 1775.37 277.066 1779.93 259.073C1792.95 207.742 1819.59 158.604 1857.63 115.762C1878.72 92.0004 1903.59 69.7254 1916.87 42.6621C1930.15 15.5988 1928.92 -18.6363 1902.2 -38.5488C1884.4 -51.8168 1859.08 -56.257 1834.96 -59.4422C1780.81 -66.593 1725.89 -70.0629 1671 -69.8203C1648.81 -69.7254 1636.92 -69.5461 1626.4 -52.6606C1617.24 -37.9477 1618.61 -20.0918 1617.56 -4.13439Z" stroke="#D29277" stroke-miterlimit="10"/>
<path d="M1845.65 192.892C1838.91 210.125 1837.09 228.319 1831.77 245.869C1821.47 279.882 1797.61 311.238 1764.45 334.378C1725.32 361.684 1675.08 376.966 1633.52 401.931C1590.03 428.056 1557.57 463.862 1528.03 500.196C1522.69 506.756 1517.23 513.949 1517.89 521.722C1519.13 536.372 1539.79 543.945 1556.59 550.188C1591.05 563.003 1621.36 582.746 1643.87 607.046C1656.15 620.314 1668.84 636.325 1689.44 638.508C1702.41 639.879 1715.05 635.154 1726.71 630.418C1758.69 617.425 1790.03 603.418 1820.6 588.452C1833.47 582.156 1846.49 575.48 1855.64 565.935C1876.73 543.902 1872.07 513.221 1867.68 485.81C1860.24 439.33 1856.49 392.481 1856.49 345.632C1856.49 331.668 1856.85 317.524 1861.6 304.077C1870.19 279.745 1892.13 260.065 1911.6 240.036C1955.01 195.37 1989.67 142.151 1988.67 85.8199C1988.43 72.1512 1980.73 42.1875 1956.2 54.3375C1940.64 62.0367 1930.24 87.518 1919.47 99.5414C1892.72 129.389 1859.63 157.212 1845.65 192.892Z" stroke="#D29277" stroke-miterlimit="10"/>
<path d="M1927.05 275.221C1900.48 287.075 1885.15 310.827 1880.45 334.673C1875.76 358.52 1880.21 382.83 1884.67 406.709C1890.57 438.37 1899.69 474.071 1934.12 490.873C1949.13 498.192 1967.32 500.861 1981.79 508.834" stroke="#D29277" stroke-miterlimit="10"/>
<path d="M1719.73 395.044C1692.24 409.103 1661.17 418.795 1635.59 434.943C1609 451.723 1589.69 474.599 1572.89 497.992C1570.05 501.936 1567.23 506.05 1566.65 510.553C1565.77 517.43 1570.4 524.148 1576.68 528.968C1582.96 533.777 1590.8 537.068 1598.32 540.601C1620.64 551.085 1640.99 564.195 1658.47 579.382C1670.01 589.412 1682.76 601.298 1699.89 601.235C1709.47 601.203 1718.27 597.27 1726.37 593.251C1745.47 583.77 1763.61 573.086 1780.57 561.336C1801.59 546.771 1821.77 528.989 1825.37 507.073C1828.47 488.278 1818.81 469.821 1814.45 451.185C1810.33 433.571 1810.96 415.273 1816.29 397.86C1821.15 381.997 1840.52 342.151 1800.8 349.365C1769.32 355.082 1746.08 381.565 1719.73 395.044Z" stroke="#D29277" stroke-miterlimit="10"/>
<path d="M1693.48 428.182C1663.6 440.838 1638.47 460.392 1621.93 483.796C1619.32 487.498 1616.85 491.495 1616.99 495.735C1617.13 500.523 1620.55 504.826 1624.08 508.707C1637.61 523.621 1654.63 536.562 1673.99 546.687C1686.41 553.184 1701.29 558.689 1715.77 555.915C1721.83 554.755 1727.31 552.213 1732.35 549.313C1757.83 534.642 1773.17 509.593 1771.96 484.682C1771.43 473.829 1767.97 463.008 1769.52 452.208C1770.89 442.578 1776.16 433.582 1778.75 424.121C1780.44 417.941 1782.07 407.057 1776.45 401.657C1768.48 393.989 1761.57 400.95 1753.35 405.095C1734.55 414.545 1713.04 419.892 1693.48 428.182Z" stroke="#D29277" stroke-miterlimit="10"/>
<path d="M1681.28 463.746C1673.19 468.914 1664.61 474.884 1662.92 483.005C1660.85 492.887 1669.67 501.957 1678.32 509.266C1685.07 514.972 1692.33 520.625 1701.45 523.61C1710.59 526.595 1722.07 526.331 1729.31 521.005C1735.35 516.565 1737.29 509.583 1737.27 503.054C1737.23 496.526 1735.55 490.05 1735.72 483.521C1735.96 473.924 1740.19 464.685 1744.63 455.752C1750.19 444.54 1749.29 425.25 1729.08 434.246C1712.21 441.756 1696.35 454.127 1681.28 463.746Z" stroke="#D29277" stroke-miterlimit="10"/>
<path d="M1695.8 492.571C1698.36 496.937 1704.81 500.913 1710.16 498.603C1712.31 497.675 1713.69 495.925 1714.53 494.11C1717.45 487.803 1714.73 480.769 1715.87 474.114C1717.48 464.674 1714.61 458.8 1703.2 466.625C1694.21 472.785 1690.76 483.996 1695.8 492.571Z" stroke="#D29277" stroke-miterlimit="10"/>
<path d="M1891.03 148.268C1879.41 161.019 1866.55 175.532 1861.2 190.825C1855.09 208.322 1856.79 226.842 1852.71 244.614C1847.96 265.286 1835.56 284.259 1824.49 303.36C1822.75 306.376 1820.99 309.667 1821.92 312.905C1822.85 316.143 1827.81 318.758 1831.32 316.944C1832.59 316.29 1833.4 315.214 1834.13 314.17C1843.08 301.409 1847.59 287.181 1854.71 273.797C1862.12 259.875 1873.89 247.841 1884.55 235.448C1910.07 205.748 1929.91 173.232 1947.48 140.2C1951.16 133.291 1971.95 86.0941 1945.21 91.1144C1935.91 92.8652 1925 110.953 1919.59 116.912C1910.07 127.354 1900.55 137.816 1891.03 148.268Z" stroke="#D29277" stroke-miterlimit="10"/>
<path d="M1882.93 184.982C1880.71 188.504 1878.65 192.132 1876.8 195.898C1875.05 199.462 1873.91 204.272 1877.88 206.444C1880.53 207.889 1884.35 207.225 1886.81 205.59C1889.29 203.955 1890.73 201.572 1892.11 199.262C1900.48 185.235 1908.51 171.809 1919.43 158.846C1922.32 155.166 1932.99 143.153 1924.89 139.778C1919.03 137.331 1913.64 147.762 1910.67 150.915C1900.29 161.968 1890.6 172.853 1882.93 184.982Z" stroke="#D29277" stroke-miterlimit="10"/>
<path d="M1643.33 28.023C1638.73 54.1898 1623.93 79.1754 1601.47 98.7293C1584.92 113.126 1563.21 126.32 1559.63 145.557C1557.12 158.994 1564.28 172.23 1567.2 185.614C1575.51 223.71 1549.32 261.446 1549.53 300.101C1549.64 318.589 1560.51 340.495 1583.64 343.164C1594.68 344.44 1605.6 340.843 1615.79 337.247C1636.48 329.959 1657 322.355 1677.32 314.455C1699.21 305.944 1721.89 296.388 1735.13 280.188C1750.09 261.889 1750.21 238.728 1756 217.424C1771.84 159.142 1830.16 114.982 1868.67 63.7242C1883.33 44.1914 1895.33 19.7648 1882.64 -0.611738C1868.39 -23.509 1831.21 -29.3309 1799.17 -32.4211C1767.79 -35.4375 1736.4 -38.4645 1705.01 -41.4809C1645.23 -47.2078 1649.65 -7.91017 1643.33 28.023Z" stroke="#D29277" stroke-miterlimit="10"/>
<path d="M1634.77 114.318C1623.21 120.72 1608.99 124.569 1600.2 133.302C1583.21 150.166 1594.75 174.498 1599.27 195.761C1603.75 216.791 1600.27 238.845 1589.37 258.356C1584.55 267.015 1578.23 275.368 1576.55 284.734C1574.87 294.1 1579.48 305.111 1590.63 308.538C1600.25 311.502 1610.97 307.979 1620.16 304.246C1644.21 294.469 1667.07 282.814 1688.25 269.515C1697.35 263.798 1706.31 257.639 1712.21 249.729C1726.12 231.114 1720.32 207.626 1723.97 186.195C1733.23 131.804 1800.87 96.6094 1831.96 47.5453C1840.31 34.3723 1845.23 16.9383 1832.64 6.08554C1824.76 -0.696101 1812.41 -2.64728 1800.95 -4.21876C1761.13 -9.70314 1683.07 -36.218 1676.83 11.1375C1671.96 47.9988 1676.96 89.2898 1634.77 114.318Z" stroke="#D29277" stroke-miterlimit="10"/>
<path d="M1704.88 43.664C1704.49 60.0539 1707.81 76.6652 1703.65 92.7176C1698.8 111.48 1683.33 128.366 1662.31 137.869C1648.19 144.25 1630.55 148.363 1623.37 159.901C1616.33 171.228 1622.6 184.56 1626.31 196.826C1631.85 215.135 1631.36 234.562 1624.89 252.682C1623.27 257.238 1621.59 262.87 1625.93 266.14C1630.33 269.452 1637.59 267.732 1642.85 265.328C1663.23 256.036 1677.64 238.982 1680.72 220.535C1682.51 209.798 1680.65 198.882 1681.48 188.072C1685.25 138.765 1740.95 103.676 1774.31 61.9101C1781.01 53.5043 1787.04 44.2652 1787.36 34.3301C1787.97 15.2824 1761.73 -1.4133 1738.2 -0.0949414C1711.24 1.40271 1705.32 25.2492 1704.88 43.664Z" stroke="#D29277" stroke-miterlimit="10"/>
<path d="M1746.05 60.75C1756.01 52.9664 1759.32 40.964 1756.36 30.3222C1754.27 22.8023 1747.23 9.76639 1735.57 16.6113C1722.61 24.2156 1724.96 45.8894 1726.4 56.8371C1726.69 59.0836 1727.19 61.4672 1729.13 63.123C1733.51 66.8355 1741.49 64.3148 1746.05 60.75Z" stroke="#D29277" stroke-miterlimit="10"/>
<path d="M1646.28 173.475C1646.76 178.706 1648.99 183.748 1649.63 188.968C1650.37 195.012 1649.21 201.772 1653.96 206.55C1654.49 207.088 1655.11 207.594 1655.88 207.889C1658.33 208.839 1661.24 207.362 1662.75 205.559C1667.08 200.359 1664.63 193.525 1663.56 187.365C1662.8 182.999 1662.84 178.548 1663.67 174.192C1664.31 170.807 1665.43 167.326 1664.35 164.004C1662.77 159.142 1656.72 157.011 1651.76 159.943C1647.01 162.759 1645.89 169.193 1646.28 173.475Z" stroke="#D29277" stroke-miterlimit="10"/>
<path d="M1420.68 311.586C1409.83 314.518 1400.73 320.467 1392.23 326.552C1379.8 335.433 1367.99 344.841 1356.85 354.744C1346.32 364.12 1335.83 377.04 1342.79 388.315C1345.09 392.048 1349.05 394.959 1353.09 397.607C1375.19 412.087 1403.76 423.098 1414.12 444.266C1419.04 454.317 1420.23 466.921 1431.81 472.584C1442.79 477.953 1457.83 473.597 1466.47 466.024C1475.11 458.452 1479.25 448.432 1484.61 439.151C1495.16 420.905 1511.19 404.662 1531 392.143C1539.35 386.87 1548.95 381.575 1551.67 373.401C1556.04 360.228 1541.6 350.473 1532.11 341.529C1523.71 333.629 1518.87 319.939 1509.29 313.474C1498.72 306.334 1486.09 310.627 1473.24 310.69C1455.61 310.774 1437.92 306.935 1420.68 311.586Z" stroke="#D29277" stroke-miterlimit="10"/>
<path d="M1413.8 345.516C1401.08 352.993 1388.57 363.593 1389.84 376.08C1390.21 379.782 1391.93 383.505 1395.31 386.079C1397.88 388.041 1401.21 389.211 1404.36 390.53C1415.09 395.012 1424.43 401.572 1431.33 409.472C1434.76 413.385 1437.89 417.846 1443.32 419.892C1452.76 423.457 1463.93 417.804 1469.72 410.906C1475.53 403.966 1478.64 395.898 1485.55 389.507C1491.8 383.727 1500.73 380.362 1505.97 373.76C1513.68 364.046 1514.01 352.213 1506.8 342.236C1485.05 312.145 1439.93 330.159 1413.8 345.516Z" stroke="#D29277" stroke-miterlimit="10"/>
<path d="M1481.44 356.569C1485.04 350.399 1484.33 345.146 1470.49 344.366C1460.15 343.786 1448.25 347.076 1439.81 351.707C1433.03 355.44 1427.6 361.072 1426.29 367.537C1425.97 369.088 1425.92 370.744 1426.71 372.189C1428.53 375.543 1433.91 376.481 1437.4 378.865C1440.37 380.89 1441.88 383.906 1443.92 386.564C1445.96 389.222 1449.13 391.774 1453.07 391.743C1457.33 391.711 1460.6 388.6 1462.05 385.414C1463.51 382.24 1463.81 378.759 1465.59 375.68C1467.96 371.535 1477.4 363.487 1481.44 356.569Z" stroke="#D29277" stroke-miterlimit="10"/>
<path d="M1282.64 10.1882C1216.79 35.8488 1154.8 68.7656 1084.56 85.6511C1064.6 90.4499 1042.61 94.6582 1029.61 107.557C1025.55 111.586 1022.56 117.123 1025.21 121.837C1029.21 128.935 1041.83 128.767 1051.51 127.491C1167.21 112.145 1288.43 100.86 1399.85 129.895C1409.93 132.521 1420.48 135.812 1426.72 142.615C1429.67 145.821 1431.57 149.744 1435.51 152.191C1443.81 157.359 1456.87 153.003 1462.39 145.874C1467.91 138.744 1468.31 129.98 1469.71 121.69C1473.01 102.231 1482.8 83.4785 1497.84 67.848C1508.49 56.7632 1521.67 47.2921 1532.01 36.0175C1546.04 20.7351 1556.52 -6.2649 1536.67 -21.9692C1521.95 -33.6129 1500.2 -29.0251 1481.76 -27.3797C1410.15 -20.9567 1348.69 -15.5461 1282.64 10.1882Z" stroke="#D29277" stroke-miterlimit="10"/>
<path d="M1355.07 8.83826C1319.77 22.391 1287.12 40.1519 1250.96 52.1754C1223.64 61.2562 1194.56 66.9832 1168.04 77.4562C1165.12 78.6058 1162.04 79.9769 1160.65 82.3183C1158.45 86.0414 1161.8 90.6293 1166.45 92.4539C1171.11 94.2785 1176.57 94.0781 1181.75 93.7828C1248.52 90.0703 1318.89 79.65 1380.04 101.208C1394.83 106.418 1411.73 113.474 1426.09 107.578C1445.12 99.7734 1441.81 77.6144 1451.29 62.4164C1462.61 44.2968 1537.68 10.6418 1489.44 -8.91213C1453.91 -23.3192 1386.6 -3.2801 1355.07 8.83826Z" stroke="#D29277" stroke-miterlimit="10"/>
<path d="M1357.37 31.1449C1343 37.8105 1327.76 43.2949 1311.96 47.4926C1299.71 50.741 1286.53 53.4937 1277.47 60.7816C1276.37 61.6676 1275.28 62.7328 1275.35 63.9773C1275.43 65.6015 1277.43 66.7195 1279.29 67.4051C1295.93 73.4906 1314.93 66.2027 1332.95 63.5027C1348.99 61.098 1365.89 62.5113 1380.95 67.5105C1390.92 70.8222 1401.44 75.7898 1411.8 73.3324C1427.29 69.6621 1429.68 53.3144 1439.2 42.9574C1446.47 35.0578 1458.56 30.3539 1464.8 21.9269C1467.23 18.6468 1468.61 14.5019 1466.55 11.0742C1464.09 7.0031 1457.85 5.44216 1452.21 4.83045C1416.75 0.959742 1386.28 17.7293 1357.37 31.1449Z" stroke="#D29277" stroke-miterlimit="10"/>
<path d="M1388.76 34.2668C1385.53 35.3004 1382.15 36.2601 1379.63 38.1586C1377.11 40.057 1375.69 43.2 1377.35 45.6257C1378.48 47.2922 1380.75 48.2308 1382.89 49.064C1385.21 49.9605 1387.57 50.8465 1390.12 51.2051C1397.95 52.3125 1405.45 48.2519 1410.92 43.6851C1416.4 39.1183 1421.09 33.7078 1428.12 30.7441C1433.64 28.4132 1441.31 26.5676 1440.08 20.3238C1438.87 14.1012 1433.08 14.5547 1427.32 15.8519C1414.17 18.8261 1402.09 30.0164 1388.76 34.2668Z" stroke="#D29277" stroke-miterlimit="10"/>
<path d="M1159.01 36.5238C1132.88 44.7503 1105.51 50.1609 1078.83 57.1851C1050.93 64.5257 1020.47 76.4964 1012.89 98.9612C1010.64 105.627 1010.65 112.809 1007.08 119.106C999.533 132.405 979.147 137.341 960.987 139.799C922.107 145.072 882.507 145.884 843.067 146.528C818.427 146.928 793.76 147.266 769.133 146.559C756.32 146.19 743.32 145.505 731.227 142.119C722.547 139.693 713.347 134.325 714.027 127.058C714.747 119.348 725.733 115.298 735.147 113.252C788.293 101.767 846.44 103.307 895.387 83.3202C922.733 72.1511 945.253 54.9808 969.56 40.0464C1023.68 6.79212 1087.97 -15.7887 1155.16 -26.5044C1169.52 -28.793 1184.67 -30.5227 1198.61 -26.9895C1216.4 -22.4754 1233.59 -5.31569 1219.28 7.85736C1204.64 21.3363 1179.4 30.1007 1159.01 36.5238Z" stroke="#D29277" stroke-miterlimit="10"/>
<path d="M962.28 62.121C955.293 67.5105 948.6 73.1636 941.093 78.089C919.973 91.9476 893.32 99.457 866.6 104.393C839.88 109.329 812.507 111.944 785.96 117.45C781.48 118.378 776.093 120.308 776.093 123.968C776.093 126.562 778.987 128.556 781.88 129.8C790.573 133.544 800.92 133.829 810.813 133.829C834.773 133.84 858.733 132.711 882.533 130.454C916.427 127.237 952.44 120.667 975.267 100.596C984.333 92.6331 990.72 82.9827 999.44 74.7773C1028.89 47.0285 1078.44 40.2363 1119.32 23.8886C1130.68 19.3429 1159.31 -2.98483 1131.45 -5.85358C1113.48 -7.69928 1086.97 2.1726 1070.45 7.2562C1030.27 19.596 993.173 38.3062 962.28 62.121Z" stroke="#D29277" stroke-miterlimit="10"/>
<path d="M877.2 57.1324C838.2 70.1261 796.88 78.1207 755.667 85.7355C743.773 87.9293 731.733 90.1125 719.533 89.9437C707.333 89.7644 694.747 86.9906 685.813 80.4093C673.587 71.4128 670.32 57.2484 669.053 44.0754C667.32 26.2089 668.027 8.19489 671.133 -9.5555C673.4 -22.4754 677.12 -35.6168 686.293 -46.459C700.533 -63.2918 726.4 -72.2989 751.933 -73.8492C777.467 -75.3996 802.907 -70.3899 827.253 -64.1145C851.6 -57.8496 875.533 -50.2559 900.667 -46.3852C932.827 -41.4282 965.907 -42.7043 998.64 -41.7973C1002.44 -41.6918 1006.41 -41.5231 1009.72 -40.036C1016.77 -36.8508 1017.91 -28.677 1014.2 -22.95C1010.51 -17.2336 1003.43 -13.4367 996.547 -10.0301C976.373 -0.031669 962.573 16.3265 943.32 27.7277C923.027 39.7511 900.533 49.3593 877.2 57.1324Z" stroke="#D29277" stroke-miterlimit="10"/>
<path d="M745.84 60.2015C734.133 60.4968 721.453 60.0433 712.253 54.3058C701.667 47.7035 698.787 36.1547 696.773 25.5972C694.333 12.825 692.16 -0.47465 697.067 -12.7934C703.64 -29.3204 722.467 -41.5653 743.28 -46.9442C764.093 -52.3231 786.707 -51.627 808.293 -48.7161C829.88 -45.8051 850.933 -40.7742 872.453 -37.568C896.307 -34.0137 920.707 -32.7164 944.96 -33.7184C951.08 -33.9715 957.493 -34.3301 963.08 -32.3368C984.173 -24.7957 957.467 -9.70315 949.053 -3.84964C935.373 5.68474 920.64 14.2804 905.12 21.8531C874.36 36.8507 840.467 47.83 805.227 54.1371C785.733 57.6281 765.827 59.6847 745.84 60.2015Z" stroke="#D29277" stroke-miterlimit="10"/>
<path d="M738.573 13.4261C740.493 23.1504 746.893 32.8324 757.88 37.4625C770.053 42.5988 784.933 40.6054 798.293 37.8738C829.093 31.5668 858.8 21.9586 886.373 9.40778C889.013 8.20544 891.693 6.92927 893.547 5.02028C898.64 -0.221516 895.253 -8.37424 888.64 -12.4242C882.027 -16.4742 873.32 -17.5078 865.027 -18.4149C843.12 -20.7985 821.2 -23.1715 799.293 -25.5551C783.627 -27.2531 764.413 -29.2571 749.827 -23.045C734.987 -16.7168 736.24 1.59255 738.573 13.4261Z" stroke="#D29277" stroke-miterlimit="10"/>
<path d="M1061.89 105.184C1059.97 105.912 1057.87 106.861 1057.39 108.496C1056.85 110.268 1058.64 112.071 1060.8 112.704C1062.96 113.337 1065.36 113.084 1067.61 112.746C1083.33 110.384 1097.95 104.098 1113.87 102.79C1129.65 101.503 1133.08 91.4836 1115 92.0004C1097.44 92.5066 1077.52 99.2566 1061.89 105.184Z" stroke="#D29277" stroke-miterlimit="10"/>
<path d="M1450.33 186.511C1451.27 192.132 1454.71 197.29 1456.4 202.806C1457.92 207.731 1458.01 212.931 1456.67 217.888C1455.69 221.495 1453.96 224.986 1453.57 228.667C1453.17 232.337 1454.43 236.429 1458.23 238.581C1463.52 241.587 1471.48 239.298 1475.23 235.079C1478.97 230.861 1479.56 225.418 1479.75 220.271C1480.19 207.773 1478.81 194.463 1471.88 183.041C1464.55 170.975 1447.67 170.501 1450.33 186.511Z" stroke="#D29277" stroke-miterlimit="10"/>
</svg>
